<svg xmlns="http://www.w3.org/2000/svg" version="1.1" xmlns:xlink="http://www.w3.org/1999/xlink" xmlns:svgjs="http://svgjs.dev/svgjs" width="1000" height="1000" viewBox="0 0 1000 1000"><rect width="1000" height="1000" fill="#000000"></rect><g transform="matrix(0.7,0,0,0.7,149.57575757575756,282.1265587044535)"><svg viewBox="0 0 396 247" data-background-color="#ffffff" preserveAspectRatio="xMidYMid meet" height="623" width="1000" xmlns="http://www.w3.org/2000/svg" xmlns:xlink="http://www.w3.org/1999/xlink"><defs></defs><g id="tight-bounds" transform="matrix(1,0,0,1,0.2400000000000091,-0.09999999999999432)"><svg viewBox="0 0 395.52 247.2" height="247.2" width="395.52"><g><svg></svg></g><g><svg viewBox="0 0 395.52 247.2" height="247.2" width="395.52"><g transform="matrix(2.7244444444444444, 0, 0, 2.7244444444444444, 87.06244160970051, 1)"><svg xmlns="http://www.w3.org/2000/svg" xmlns:xlink="http://www.w3.org/1999/xlink" version="1.1" x="0" y="0" viewBox="9.368760108947754 5 81.26248168945312 90" style="enable-background:new 0 0 100 100;" xml:space="preserve" height="90" width="81.26248168945312" class="icon-none" data-fill-palette-color="accent" id="none"><path d="M86.6 54.1h-6.2V54c0-7.4-4.2-13.8-10.4-16.9 0.2-0.1 0.4-0.3 0.5-0.5l12.2-25.3c0.3-0.6 0-1.3-0.6-1.6l-2.2-1.1c-0.6-0.3-1.3 0-1.6 0.6L65.6 35.5c-0.1 0-0.2 0-0.2-0.1V6.2c0-0.7-0.5-1.2-1.2-1.2h-2.5c-0.7 0-1.2 0.5-1.2 1.2v27.9c-1.1-3.8-3.4-6.7-6.8-8.5-3.5-1.8-8.1-2.4-12.8-1.5-9.4 1.8-15.5 10-14.2 18.8-4.5 1.8-7.7 6.2-7.7 11.3h-5.6c-2.4 0-4.3 2.1-4 4.4C11.6 79.1 28.9 95 50 95s38.4-15.9 40.6-36.4C90.9 56.2 89 54.1 86.6 54.1zM60.8 35C60.8 35 60.8 35 60.8 35 60.8 35 60.8 35 60.8 35 60.8 35 60.8 35 60.8 35zM42.3 53.8H20c0.3-6 5.2-10.8 11.3-10.8 5.5 0 10.1 3.9 11.1 9.1C42.4 52.7 42.3 53.2 42.3 53.8zM31.3 42c-1.3 0-2.5 0.2-3.6 0.5-1.1-8.3 4.6-15.9 13.4-17.5 4.5-0.8 8.8-0.3 12.1 1.4 3.4 1.8 5.7 4.8 6.6 8.7-8.4 0.7-15.2 6.8-17 14.8C41 45.3 36.6 42 31.3 42zM50 53.5c0.3-6 5.2-10.8 11.3-10.8 6.1 0 11.1 4.8 11.3 10.8H50zM73.6 53.5C73.4 47 68 41.7 61.4 41.7c-6.6 0-12 5.3-12.3 11.8h-5.5c0-0.5-0.1-1-0.2-1.5 1-9 8.6-16.1 17.9-16.1 9.8 0 17.8 7.8 18 17.6H73.6z" fill="#ffffff" data-fill-palette-color="accent"></path></svg></g><rect width="232.0384" height="18.59698281792632" fill="#ffffff" y="114.30150859103684" x="81.7408" data-fill-palette-color="quaternary"></rect><g transform="matrix(1,0,0,1,92.288,117.28374229769537)"><svg viewBox="0 0 210.944 12.632515404609252" height="12.632515404609252" width="210.944"><g><svg viewBox="0 0 210.944 12.632515404609252" height="12.632515404609252" width="210.944"><g><svg viewBox="0 0 210.944 12.632515404609252" height="12.632515404609252" width="210.944"><g><svg viewBox="0 0 210.944 12.632515404609252" height="12.632515404609252" width="210.944"><g><svg viewBox="0 0 210.944 12.632515404609252" height="12.632515404609252" width="210.944"><g><svg viewBox="0 0 210.944 12.632515404609252" height="12.632515404609252" width="210.944"><g transform="matrix(1,0,0,1,0,0)"><svg width="210.944" viewBox="2.2699999809265137 -40.43000030517578 704.4199829101562 42.189998626708984" height="12.632515404609252" data-palette-color="#ca3433"><path d="M14.58-14.06L14.58 0 12.82 0 12.82-40.43 32.28-40.43 32.28-38.67 14.58-38.67 14.58-36.91 32.28-36.91 32.28-35.16 14.58-35.16 14.58-33.4 32.28-33.4 32.28-31.64 14.58-31.64 14.58-22.85 31.45-22.85 31.45-21.09 14.58-21.09 14.58-19.34 31.45-19.34 31.45-17.58 14.58-17.58 14.58-15.82 31.45-15.82 31.45-14.06 14.58-14.06ZM11.06-40.43L11.06 0 9.3 0 9.3-40.43 11.06-40.43ZM7.54-40.43L7.54 0 5.79 0 5.79-40.43 7.54-40.43ZM4.03-40.43L4.03 0 2.27 0 2.27-40.43 4.03-40.43ZM49.86-22.55Q47.8-20.48 47.8-17.58 47.8-14.67 49.86-12.61 51.93-10.55 54.83-10.55 57.74-10.55 59.8-12.61 61.86-14.67 61.86-17.58 61.86-20.48 59.8-22.55 57.74-24.61 54.83-24.61 51.93-24.61 49.86-22.55ZM48.62-11.36Q46.04-13.94 46.04-17.58 46.04-21.22 48.62-23.79 51.19-26.37 54.83-26.37 58.47-26.37 61.04-23.79 63.62-21.22 63.62-17.58 63.62-13.94 61.04-11.36 58.47-8.79 54.83-8.79 51.19-8.79 48.62-11.36ZM47.37-25.02Q44.28-21.92 44.28-17.58 44.28-13.23 47.37-10.13 50.46-7.03 54.83-7.03 59.2-7.03 62.29-10.13 65.38-13.23 65.38-17.58 65.38-21.92 62.29-25.02 59.2-28.13 54.83-28.13 50.46-28.13 47.37-25.02ZM44.17-11.4Q42.53-14.23 42.53-17.58 42.53-20.92 44.17-23.75 45.82-26.59 48.65-28.23 51.49-29.88 54.83-29.88 58.18-29.88 61.01-28.23 63.84-26.59 65.49-23.75 67.14-20.92 67.14-17.58 67.14-14.23 65.49-11.4 63.84-8.57 61.01-6.92 58.18-5.27 54.83-5.27 51.49-5.27 48.65-6.92 45.82-8.57 44.17-11.4ZM41.88-23.03Q40.77-20.43 40.77-17.58 40.77-14.72 41.88-12.12 42.99-9.52 44.88-7.63 46.77-5.74 49.37-4.63 51.98-3.52 54.83-3.52 57.69-3.52 60.29-4.63 62.89-5.74 64.78-7.63 66.67-9.52 67.78-12.12 68.89-14.72 68.89-17.58 68.89-20.43 67.78-23.03 66.67-25.63 64.78-27.53 62.89-29.42 60.29-30.53 57.69-31.64 54.83-31.64 51.98-31.64 49.37-30.53 46.77-29.42 44.88-27.53 42.99-25.63 41.88-23.03ZM40.27-11.43Q39.01-14.36 39.01-17.58 39.01-20.8 40.27-23.73 41.53-26.66 43.64-28.77 45.75-30.88 48.68-32.14 51.61-33.4 54.83-33.4 58.05-33.4 60.98-32.14 63.91-30.88 66.03-28.77 68.14-26.66 69.39-23.73 70.65-20.8 70.65-17.58 70.65-14.36 69.39-11.43 68.14-8.5 66.03-6.38 63.91-4.27 60.98-3.02 58.05-1.76 54.83-1.76 51.61-1.76 48.68-3.02 45.75-4.27 43.64-6.38 41.53-8.5 40.27-11.43ZM38.64-24.4Q37.25-21.14 37.25-17.58 37.25-14.01 38.64-10.75 40.04-7.5 42.39-5.14 44.75-2.78 48.01-1.39 51.27 0 54.83 0 58.4 0 61.66-1.39 64.91-2.78 67.27-5.14 69.63-7.5 71.02-10.75 72.41-14.01 72.41-17.58 72.41-21.14 71.02-24.4 69.63-27.66 67.27-30.02 64.91-32.37 61.66-33.76 58.4-35.16 54.83-35.16 51.27-35.16 48.01-33.76 44.75-32.37 42.39-30.02 40.04-27.66 38.64-24.4ZM37.03-10.07Q35.5-13.65 35.5-17.58 35.5-21.51 37.03-25.09 38.57-28.66 41.16-31.25 43.75-33.84 47.32-35.38 50.9-36.91 54.83-36.91 58.76-36.91 62.34-35.38 65.92-33.84 68.5-31.25 71.09-28.66 72.63-25.09 74.17-21.51 74.17-17.58 74.17-13.65 72.63-10.07 71.09-6.49 68.5-3.91 65.92-1.32 62.34 0.22 58.76 1.76 54.83 1.76 50.9 1.76 47.32 0.22 43.75-1.32 41.16-3.91 38.57-6.49 37.03-10.07ZM91.38-15.04L91.38-16.8 101.97-16.8Q104.07-16.8 105.54-18.12 107-19.43 107-21.83L107-21.83Q107-23.58 105.48-24.98 103.95-26.37 101.97-26.37L101.97-26.37 86.88-26.37 86.88 0 85.13 0 85.13-28.13 101.97-28.13Q104.68-28.13 106.72-26.22 108.76-24.32 108.76-21.83L108.76-21.83Q108.76-18.73 106.78-16.88 104.8-15.04 101.97-15.04L101.97-15.04 91.38-15.04ZM91.38-11.52L91.38-13.28 101.97-13.28Q105.49-13.28 108-15.67 110.52-18.07 110.52-21.83L110.52-21.83Q110.52-25.02 107.95-27.45 105.39-29.88 101.97-29.88L101.97-29.88 83.37-29.88 83.37 0 81.61 0 81.61-31.64 101.97-31.64Q106.12-31.64 109.2-28.7 112.28-25.76 112.28-21.83L112.28-21.83Q112.28-17.43 109.24-14.48 106.2-11.52 101.97-11.52L101.97-11.52 91.38-11.52ZM91.38-8.01L91.38-9.77 101.97-9.77Q105.22-9.77 107.98-11.33 110.74-12.89 112.39-15.67 114.03-18.46 114.03-21.83L114.03-21.83Q114.03-24.88 112.4-27.55 110.76-30.22 107.97-31.81 105.17-33.4 101.97-33.4L101.97-33.4 79.85-33.4 79.85 0 78.1 0 78.1-35.16 101.97-35.16Q104.73-35.16 107.28-34.07 109.83-32.98 111.69-31.19 113.54-29.39 114.67-26.93 115.79-24.46 115.79-21.83L115.79-21.83Q115.79-17.55 113.84-14.37 111.88-11.18 108.59-9.52L108.59-9.52 112.28 0 110.4 0 106.9-8.81Q106.25-8.59 105.37-8.37L105.37-8.37 108.66 0 106.78 0 103.56-8.08Q102.8-8.01 101.97-8.01L101.97-8.01 105.07 0 103.22 0 100.14-8.01 98.55-8.01 101.51 0 99.65 0 96.67-8.01 91.38-8.01ZM90.4-22.85L90.4 0 88.64 0 88.64-24.61 101.97-24.61Q103.34-24.61 104.29-23.79 105.24-22.97 105.24-21.83L105.24-21.83Q105.24-18.55 101.97-18.55L101.97-18.55 91.38-18.55 91.38-20.31 101.97-20.31Q103.49-20.31 103.49-21.83L103.49-21.83Q103.49-22.24 103.03-22.55 102.58-22.85 101.97-22.85L101.97-22.85 90.4-22.85ZM137.39-14.06L137.39 0 135.63 0 135.63-40.43 155.09-40.43 155.09-38.67 137.39-38.67 137.39-36.91 155.09-36.91 155.09-35.16 137.39-35.16 137.39-33.4 155.09-33.4 155.09-31.64 137.39-31.64 137.39-22.85 154.26-22.85 154.26-21.09 137.39-21.09 137.39-19.34 154.26-19.34 154.26-17.58 137.39-17.58 137.39-15.82 154.26-15.82 154.26-14.06 137.39-14.06ZM133.88-40.43L133.88 0 132.12 0 132.12-40.43 133.88-40.43ZM130.36-40.43L130.36 0 128.6 0 128.6-40.43 130.36-40.43ZM126.85-40.43L126.85 0 125.09 0 125.09-40.43 126.85-40.43ZM172.68-22.55Q170.62-20.48 170.62-17.58 170.62-14.67 172.68-12.61 174.74-10.55 177.65-10.55 180.55-10.55 182.62-12.61 184.68-14.67 184.68-17.58 184.68-20.48 182.62-22.55 180.55-24.61 177.65-24.61 174.74-24.61 172.68-22.55ZM171.44-11.36Q168.86-13.94 168.86-17.58 168.86-21.22 171.44-23.79 174.01-26.37 177.65-26.37 181.29-26.37 183.86-23.79 186.44-21.22 186.44-17.58 186.44-13.94 183.86-11.36 181.29-8.79 177.65-8.79 174.01-8.79 171.44-11.36ZM170.19-25.02Q167.1-21.92 167.1-17.58 167.1-13.23 170.19-10.13 173.28-7.03 177.65-7.03 182.02-7.03 185.11-10.13 188.2-13.23 188.2-17.58 188.2-21.92 185.11-25.02 182.02-28.13 177.65-28.13 173.28-28.13 170.19-25.02ZM166.99-11.4Q165.34-14.23 165.34-17.58 165.34-20.92 166.99-23.75 168.64-26.59 171.47-28.23 174.3-29.88 177.65-29.88 180.99-29.88 183.83-28.23 186.66-26.59 188.31-23.75 189.95-20.92 189.95-17.58 189.95-14.23 188.31-11.4 186.66-8.57 183.83-6.92 180.99-5.27 177.65-5.27 174.3-5.27 171.47-6.92 168.64-8.57 166.99-11.4ZM164.7-23.03Q163.59-20.43 163.59-17.58 163.59-14.72 164.7-12.12 165.81-9.52 167.7-7.63 169.59-5.74 172.19-4.63 174.79-3.52 177.65-3.52 180.51-3.52 183.11-4.63 185.71-5.74 187.6-7.63 189.49-9.52 190.6-12.12 191.71-14.72 191.71-17.58 191.71-20.43 190.6-23.03 189.49-25.63 187.6-27.53 185.71-29.42 183.11-30.53 180.51-31.64 177.65-31.64 174.79-31.64 172.19-30.53 169.59-29.42 167.7-27.53 165.81-25.63 164.7-23.03ZM163.09-11.43Q161.83-14.36 161.83-17.58 161.83-20.8 163.09-23.73 164.34-26.66 166.45-28.77 168.57-30.88 171.5-32.14 174.43-33.4 177.65-33.4 180.87-33.4 183.8-32.14 186.73-30.88 188.84-28.77 190.95-26.66 192.21-23.73 193.47-20.8 193.47-17.58 193.47-14.36 192.21-11.43 190.95-8.5 188.84-6.38 186.73-4.27 183.8-3.02 180.87-1.76 177.65-1.76 174.43-1.76 171.5-3.02 168.57-4.27 166.45-6.38 164.34-8.5 163.09-11.43ZM161.46-24.4Q160.07-21.14 160.07-17.58 160.07-14.01 161.46-10.75 162.85-7.5 165.21-5.14 167.57-2.78 170.82-1.39 174.08 0 177.65 0 181.21 0 184.47-1.39 187.73-2.78 190.09-5.14 192.44-7.5 193.84-10.75 195.23-14.01 195.23-17.58 195.23-21.14 193.84-24.4 192.44-27.66 190.09-30.02 187.73-32.37 184.47-33.76 181.21-35.16 177.65-35.16 174.08-35.16 170.82-33.76 167.57-32.37 165.21-30.02 162.85-27.66 161.46-24.4ZM159.85-10.07Q158.31-13.65 158.31-17.58 158.31-21.51 159.85-25.09 161.39-28.66 163.98-31.25 166.56-33.84 170.14-35.38 173.72-36.91 177.65-36.91 181.58-36.91 185.16-35.38 188.73-33.84 191.32-31.25 193.91-28.66 195.45-25.09 196.98-21.51 196.98-17.58 196.98-13.65 195.45-10.07 193.91-6.49 191.32-3.91 188.73-1.32 185.16 0.22 181.58 1.76 177.65 1.76 173.72 1.76 170.14 0.22 166.56-1.32 163.98-3.91 161.39-6.49 159.85-10.07ZM218.01-22.55Q215.95-20.48 215.95-17.58 215.95-14.67 218.01-12.61 220.08-10.55 222.98-10.55 225.89-10.55 227.95-12.61 230.01-14.67 230.01-17.58 230.01-20.48 227.95-22.55 225.89-24.61 222.98-24.61 220.08-24.61 218.01-22.55ZM216.77-11.36Q214.19-13.94 214.19-17.58 214.19-21.22 216.77-23.79 219.35-26.37 222.98-26.37 226.62-26.37 229.2-23.79 231.77-21.22 231.77-17.58 231.77-13.94 229.2-11.36 226.62-8.79 222.98-8.79 219.35-8.79 216.77-11.36ZM215.52-25.02Q212.44-21.92 212.44-17.58 212.44-13.23 215.52-10.13 218.61-7.03 222.98-7.03 227.35-7.03 230.44-10.13 233.53-13.23 233.53-17.58 233.53-21.92 230.44-25.02 227.35-28.13 222.98-28.13 218.61-28.13 215.52-25.02ZM212.33-11.4Q210.68-14.23 210.68-17.58 210.68-20.92 212.33-23.75 213.97-26.59 216.81-28.23 219.64-29.88 222.98-29.88 226.33-29.88 229.16-28.23 231.99-26.59 233.64-23.75 235.29-20.92 235.29-17.58 235.29-14.23 233.64-11.4 231.99-8.57 229.16-6.92 226.33-5.27 222.98-5.27 219.64-5.27 216.81-6.92 213.97-8.57 212.33-11.4ZM210.03-23.03Q208.92-20.43 208.92-17.58 208.92-14.72 210.03-12.12 211.14-9.52 213.03-7.63 214.93-5.74 217.53-4.63 220.13-3.52 222.98-3.52 225.84-3.52 228.44-4.63 231.04-5.74 232.93-7.63 234.82-9.52 235.93-12.12 237.05-14.72 237.05-17.58 237.05-20.43 235.93-23.03 234.82-25.63 232.93-27.53 231.04-29.42 228.44-30.53 225.84-31.64 222.98-31.64 220.13-31.64 217.53-30.53 214.93-29.42 213.03-27.53 211.14-25.63 210.03-23.03ZM208.42-11.43Q207.16-14.36 207.16-17.58 207.16-20.8 208.42-23.73 209.68-26.66 211.79-28.77 213.9-30.88 216.83-32.14 219.76-33.4 222.98-33.4 226.21-33.4 229.14-32.14 232.07-30.88 234.18-28.77 236.29-26.66 237.55-23.73 238.8-20.8 238.8-17.58 238.8-14.36 237.55-11.43 236.29-8.5 234.18-6.38 232.07-4.27 229.14-3.02 226.21-1.76 222.98-1.76 219.76-1.76 216.83-3.02 213.9-4.27 211.79-6.38 209.68-8.5 208.42-11.43ZM206.8-24.4Q205.4-21.14 205.4-17.58 205.4-14.01 206.8-10.75 208.19-7.5 210.54-5.14 212.9-2.78 216.16-1.39 219.42 0 222.98 0 226.55 0 229.81-1.39 233.07-2.78 235.42-5.14 237.78-7.5 239.17-10.75 240.56-14.01 240.56-17.58 240.56-21.14 239.17-24.4 237.78-27.66 235.42-30.02 233.07-32.37 229.81-33.76 226.55-35.16 222.98-35.16 219.42-35.16 216.16-33.76 212.9-32.37 210.54-30.02 208.19-27.66 206.8-24.4ZM205.19-10.07Q203.65-13.65 203.65-17.58 203.65-21.51 205.19-25.09 206.72-28.66 209.31-31.25 211.9-33.84 215.48-35.38 219.05-36.91 222.98-36.91 226.91-36.91 230.49-35.38 234.07-33.84 236.65-31.25 239.24-28.66 240.78-25.09 242.32-21.51 242.32-17.58 242.32-13.65 240.78-10.07 239.24-6.49 236.65-3.91 234.07-1.32 230.49 0.22 226.91 1.76 222.98 1.76 219.05 1.76 215.48 0.22 211.9-1.32 209.31-3.91 206.72-6.49 205.19-10.07ZM266.54-10.55L256.79-10.55 256.79-24.61Q256.79-24.61 266.54-24.61L266.54-24.61Q269.25-24.61 271.19-22.56 273.13-20.51 273.13-17.63L273.13-17.63Q273.13-14.65 271.2-12.6 269.27-10.55 266.54-10.55L266.54-10.55ZM258.55-22.85L258.55-12.3 266.54-12.3Q268.51-12.3 269.92-13.84 271.32-15.38 271.32-17.63L271.32-17.63Q271.32-19.78 269.92-21.31 268.51-22.85 266.54-22.85L266.54-22.85 258.55-22.85ZM255.04-26.37L255.04-8.79 266.54-8.79Q270-8.79 272.47-11.36 274.93-13.94 274.93-17.63L274.93-17.63Q274.93-21.24 272.46-23.8 269.98-26.37 266.54-26.37L266.54-26.37 255.04-26.37ZM266.54-7.03L253.28-7.03 253.28-28.13 266.54-28.13Q270.71-28.13 273.73-25.04 276.74-21.95 276.74-17.63L276.74-17.63Q276.74-13.21 273.74-10.12 270.73-7.03 266.54-7.03L266.54-7.03ZM251.52-29.88L251.52-5.27 266.54-5.27Q269.76-5.27 272.52-6.91 275.28-8.54 276.91-11.4 278.55-14.26 278.55-17.63L278.55-17.63Q278.55-20.92 276.91-23.75 275.28-26.59 272.5-28.23 269.73-29.88 266.54-29.88L266.54-29.88 251.52-29.88ZM266.54-3.52L249.76-3.52 249.76-31.64 266.54-31.64Q270.22-31.64 273.41-29.76 276.59-27.88 278.47-24.65 280.35-21.41 280.35-17.63L280.35-17.63Q280.35-13.79 278.47-10.53 276.59-7.28 273.41-5.4 270.22-3.52 266.54-3.52L266.54-3.52ZM248-33.4L248-1.76 266.54-1.76Q270.71-1.76 274.3-3.87 277.89-5.98 280.02-9.64 282.16-13.31 282.16-17.63L282.16-17.63Q282.16-21.88 280.02-25.52 277.89-29.17 274.29-31.29 270.69-33.4 266.54-33.4L266.54-33.4 248-33.4ZM266.54 0L266.54 0 246.25 0 246.25-35.16 266.54-35.16Q271.17-35.16 275.19-32.8 279.21-30.44 281.59-26.4 283.97-22.36 283.97-17.63L283.97-17.63Q283.97-14.04 282.56-10.77 281.16-7.5 278.8-5.14 276.45-2.78 273.22-1.39 270 0 266.54 0ZM298.44 0L298.44-35.16 300.2-35.16 300.2 0 298.44 0ZM294.93 0L294.93-35.16 296.68-35.16 296.68 0 294.93 0ZM291.41 0L291.41-35.16 293.17-35.16 293.17 0 291.41 0ZM287.9 0L287.9-35.16 289.65-35.16 289.65 0 287.9 0ZM313.58-35.16L313.58 0 311.82 0 311.82-35.16 313.58-35.16ZM310.06-35.16L310.06 0 308.3 0 308.3-35.16 310.06-35.16ZM306.54-35.16L306.54 0 304.79 0 304.79-35.16 306.54-35.16ZM317.09-13.21L317.09-8.79 333.91-8.79 333.91-7.03 317.09-7.03 317.09-5.27 333.91-5.27 333.91-3.52 317.09-3.52 317.09-1.76 333.91-1.76 333.91 0 315.33 0 315.33-35.16 333.91-35.16 333.91-33.4 317.09-33.4 317.09-31.64 333.91-31.64 333.91-29.88 317.09-29.88 317.09-28.13 333.91-28.13 333.91-26.37 317.09-26.37 317.09-22 332.94-22 332.94-20.24 317.09-20.24 317.09-18.48 332.94-18.48 332.94-16.72 317.09-16.72 317.09-14.97 332.94-14.97 332.94-13.21 317.09-13.21ZM354.3-16.72L354.3-16.72 351.51-16.72Q346.39-16.72 343.63-18.81 340.87-20.9 340.87-24.56L340.87-24.56Q340.87-27.98 344.12-30.26 347.36-32.54 353.22-32.54L353.22-32.54Q357.13-32.54 360.51-31.47 363.89-30.4 366.14-28.44L366.14-28.44 364.77-27.34Q362.77-28.98 359.74-29.88 356.71-30.79 353.22-30.79L353.22-30.79Q348.07-30.79 345.35-29.03 342.63-27.27 342.63-24.56L342.63-24.56Q342.63-21.63 344.86-20.06 347.09-18.48 351.51-18.48L351.51-18.48 354.2-18.48Q359.4-18.48 362.17-16.39 364.94-14.31 364.94-10.64L364.94-10.64Q364.94-7.23 361.69-4.94 358.45-2.66 352.59-2.66L352.59-2.66Q348.68-2.66 345.3-3.74 341.92-4.81 339.67-6.76L339.67-6.76 341.04-7.86Q343.04-6.23 346.07-5.32 349.1-4.42 352.59-4.42L352.59-4.42Q357.74-4.42 360.46-6.18 363.18-7.93 363.18-10.64L363.18-10.64Q363.18-13.57 360.95-15.15 358.72-16.72 354.3-16.72ZM354.3-13.21L354.3-13.21 351.51-13.21Q344.73-13.21 341.04-16.3 337.35-19.38 337.35-24.56L337.35-24.56Q337.35-26.93 338.4-29 339.45-31.08 341.42-32.65 343.38-34.23 346.43-35.14 349.49-36.06 353.22-36.06L353.22-36.06Q357.93-36.06 362.04-34.63 366.14-33.2 368.87-30.64L368.87-30.64 367.46-29.59Q364.97-31.84 361.23-33.07 357.49-34.3 353.22-34.3L353.22-34.3Q346.63-34.3 342.87-31.52 339.11-28.74 339.11-24.56L339.11-24.56Q339.11-20.14 342.33-17.55 345.56-14.97 351.51-14.97L351.51-14.97 354.2-14.97Q361.43-14.97 361.43-10.64L361.43-10.64Q361.43-8.69 359.22-7.43 357.01-6.18 352.59-6.18L352.59-6.18Q349.49-6.18 346.83-6.9 344.16-7.62 342.43-8.96L342.43-8.96 343.82-10.03Q346.87-7.93 352.59-7.93L352.59-7.93Q356.25-7.93 357.96-8.69 359.67-9.45 359.67-10.64L359.67-10.64Q359.67-12.04 358.47-12.62 357.27-13.21 354.3-13.21ZM354.3-20.24L354.3-20.24 351.51-20.24Q344.38-20.24 344.38-24.56L344.38-24.56Q344.38-26.51 346.59-27.77 348.8-29.03 353.22-29.03L353.22-29.03Q356.32-29.03 358.98-28.31 361.64-27.59 363.38-26.25L363.38-26.25 361.99-25.17Q358.93-27.27 353.22-27.27L353.22-27.27Q349.56-27.27 347.85-26.51 346.14-25.76 346.14-24.56L346.14-24.56Q346.14-23.17 347.34-22.58 348.53-22 351.51-22L351.51-22 354.3-22Q361.08-22 364.77-18.91 368.46-15.82 368.46-10.64L368.46-10.64Q368.46-8.28 367.41-6.2 366.36-4.13 364.39-2.55 362.43-0.98 359.37-0.06 356.32 0.85 352.59 0.85L352.59 0.85Q347.88 0.85 343.77-0.57 339.67-2 336.94-4.57L336.94-4.57 338.35-5.62Q340.84-3.37 344.58-2.14 348.31-0.9 352.59-0.9L352.59-0.9Q359.18-0.9 362.94-3.69 366.7-6.47 366.7-10.64L366.7-10.64Q366.7-15.06 363.48-17.65 360.25-20.24 354.3-20.24ZM404.56-14.09L404.56-14.09Q404.56-15.04 403.99-15.36 403.41-15.67 402.31-15.67L402.31-15.67 390.99-15.67 390.99-17.43 402.31-17.43Q406.32-17.43 406.32-14.09L406.32-14.09Q406.32-12.21 405.22-11.38 404.12-10.55 402.31-10.55L402.31-10.55 390.99-10.55 390.99-12.3 402.31-12.3Q404.56-12.3 404.56-14.09ZM390.01-28.13L390.01 0 388.25 0 388.25-29.88 402.31-29.88Q403.97-29.88 405.15-28.87 406.32-27.86 406.32-26.34L406.32-26.34Q406.32-24.34 405.22-23.45 404.12-22.56 402.31-22.56L402.31-22.56 390.99-22.56 390.99-24.32 402.31-24.32Q404.56-24.32 404.56-26.34L404.56-26.34Q404.56-27.17 403.93-27.65 403.29-28.13 402.31-28.13L402.31-28.13 390.01-28.13ZM390.99-19.04L390.99-20.8 402.31-20.8Q404.73-20.8 406.4-22.25 408.08-23.71 408.08-26.34L408.08-26.34Q408.08-28.47 406.33-30.05 404.58-31.64 402.31-31.64L402.31-31.64 386.49-31.64 386.49 0 384.74 0 384.74-33.4 402.31-33.4Q405.32-33.4 407.57-31.29 409.83-29.17 409.83-26.34L409.83-26.34Q409.83-24.12 408.8-22.46 407.76-20.8 406-19.9L406-19.9Q409.83-18.53 409.83-14.33L409.83-14.33Q409.83-11.01 407.64-9.02 405.44-7.03 402.31-7.03L402.31-7.03 390.99-7.03 390.99-8.79 402.31-8.79Q404.73-8.79 406.4-10.24 408.08-11.69 408.08-14.33L408.08-14.33Q408.08-16.11 406.81-17.48 405.54-18.85 403.07-19.07L403.07-19.07Q402.83-19.04 402.31-19.04L402.31-19.04 390.99-19.04ZM413.35-26.34L413.35-26.34Q413.35-22.92 410.93-20.17L410.93-20.17Q413.35-17.48 413.35-14.33L413.35-14.33Q413.35-11.28 411.82-8.78 410.3-6.27 407.77-4.9 405.24-3.52 402.31-3.52L402.31-3.52 390.99-3.52 390.99-5.27 402.31-5.27Q406.12-5.27 408.86-7.82 411.59-10.38 411.59-14.33L411.59-14.33Q411.59-15.75 410.87-17.47 410.15-19.19 408.88-20.09L408.88-20.09Q411.59-22.63 411.59-26.34L411.59-26.34Q411.59-29.91 408.81-32.53 406.02-35.16 402.31-35.16L402.31-35.16 382.98-35.16 382.98 0 381.22 0 381.22-36.91 402.31-36.91Q405.22-36.91 407.77-35.49 410.32-34.06 411.84-31.6 413.35-29.15 413.35-26.34ZM412.93-20.07L412.93-20.07Q415.11-22.97 415.11-26.34L415.11-26.34Q415.11-29.64 413.36-32.48 411.62-35.33 408.66-37 405.71-38.67 402.31-38.67L402.31-38.67 379.46-38.67 379.46 0 377.7 0 377.7-40.43 402.31-40.43Q406.17-40.43 409.53-38.53 412.89-36.62 414.87-33.36 416.86-30.1 416.86-26.34L416.86-26.34Q416.86-22.75 414.84-20.04L414.84-20.04Q416.86-17.24 416.86-14.33L416.86-14.33Q416.86-11.06 415.69-8.34 414.52-5.62 412.53-3.81 410.54-2 407.9-1 405.27 0 402.31 0L402.31 0 390.99 0 390.99-1.76 402.31-1.76Q404.88-1.76 407.22-2.72 409.56-3.69 411.3-5.35 413.03-7.01 414.07-9.35 415.11-11.69 415.11-14.33L415.11-14.33Q415.11-15.5 414.56-17.15 414.01-18.8 412.93-20.07ZM441.67-11.87L452.73-35.16 454.48-35.16 443.42-11.87 443.42 0 441.67 0 441.67-11.87ZM438.15-11.87L449.21-35.16 450.97-35.16 439.91-11.87 439.91 0 438.15 0 438.15-11.87ZM434.64-11.87L445.7-35.16 447.45-35.16 436.39-11.87 436.39 0 434.64 0 434.64-11.87ZM431.97-13.65L442.18-35.16 443.94-35.16 432.88-11.87 432.88 0 431.12 0 431.12-11.87 419.33-35.16 421.09-35.16 431.97-13.65ZM432.46-16.65L422.87-35.16 424.63-35.16 433.34-18.58 432.46-16.65ZM434.2-20.51L426.38-35.16 428.17-35.16 435.1-22.44 434.2-20.51ZM435.98-24.34L429.95-35.16 431.71-35.16 436.86-26.27 435.98-24.34ZM475.21-14.06L475.21 0 473.45 0 473.45-40.43 492.91-40.43 492.91-38.67 475.21-38.67 475.21-36.91 492.91-36.91 492.91-35.16 475.21-35.16 475.21-33.4 492.91-33.4 492.91-31.64 475.21-31.64 475.21-22.85 492.08-22.85 492.08-21.09 475.21-21.09 475.21-19.34 492.08-19.34 492.08-17.58 475.21-17.58 475.21-15.82 492.08-15.82 492.08-14.06 475.21-14.06ZM471.69-40.43L471.69 0 469.93 0 469.93-40.43 471.69-40.43ZM468.18-40.43L468.18 0 466.42 0 466.42-40.43 468.18-40.43ZM464.66-40.43L464.66 0 462.9 0 462.9-40.43 464.66-40.43ZM510.49-22.55Q508.43-20.48 508.43-17.58 508.43-14.67 510.49-12.61 512.56-10.55 515.46-10.55 518.37-10.55 520.43-12.61 522.49-14.67 522.49-17.58 522.49-20.48 520.43-22.55 518.37-24.61 515.46-24.61 512.56-24.61 510.49-22.55ZM509.25-11.36Q506.67-13.94 506.67-17.58 506.67-21.22 509.25-23.79 511.83-26.37 515.46-26.37 519.1-26.37 521.68-23.79 524.25-21.22 524.25-17.58 524.25-13.94 521.68-11.36 519.1-8.79 515.46-8.79 511.83-8.79 509.25-11.36ZM508-25.02Q504.92-21.92 504.92-17.58 504.92-13.23 508-10.13 511.09-7.03 515.46-7.03 519.83-7.03 522.92-10.13 526.01-13.23 526.01-17.58 526.01-21.92 522.92-25.02 519.83-28.13 515.46-28.13 511.09-28.13 508-25.02ZM504.81-11.4Q503.16-14.23 503.16-17.58 503.16-20.92 504.81-23.75 506.45-26.59 509.29-28.23 512.12-29.88 515.46-29.88 518.81-29.88 521.64-28.23 524.47-26.59 526.12-23.75 527.77-20.92 527.77-17.58 527.77-14.23 526.12-11.4 524.47-8.57 521.64-6.92 518.81-5.27 515.46-5.27 512.12-5.27 509.29-6.92 506.45-8.57 504.81-11.4ZM502.51-23.03Q501.4-20.43 501.4-17.58 501.4-14.72 502.51-12.12 503.62-9.52 505.51-7.63 507.41-5.74 510.01-4.63 512.61-3.52 515.46-3.52 518.32-3.52 520.92-4.63 523.52-5.74 525.41-7.63 527.3-9.52 528.41-12.12 529.53-14.72 529.53-17.58 529.53-20.43 528.41-23.03 527.3-25.63 525.41-27.53 523.52-29.42 520.92-30.53 518.32-31.64 515.46-31.64 512.61-31.64 510.01-30.53 507.41-29.42 505.51-27.53 503.62-25.63 502.51-23.03ZM500.9-11.43Q499.64-14.36 499.64-17.58 499.64-20.8 500.9-23.73 502.16-26.66 504.27-28.77 506.38-30.88 509.31-32.14 512.24-33.4 515.46-33.4 518.69-33.4 521.62-32.14 524.54-30.88 526.66-28.77 528.77-26.66 530.03-23.73 531.28-20.8 531.28-17.58 531.28-14.36 530.03-11.43 528.77-8.5 526.66-6.38 524.54-4.27 521.62-3.02 518.69-1.76 515.46-1.76 512.24-1.76 509.31-3.02 506.38-4.27 504.27-6.38 502.16-8.5 500.9-11.43ZM499.28-24.4Q497.88-21.14 497.88-17.58 497.88-14.01 499.28-10.75 500.67-7.5 503.02-5.14 505.38-2.78 508.64-1.39 511.9 0 515.46 0 519.03 0 522.29-1.39 525.55-2.78 527.9-5.14 530.26-7.5 531.65-10.75 533.04-14.01 533.04-17.58 533.04-21.14 531.65-24.4 530.26-27.66 527.9-30.02 525.55-32.37 522.29-33.76 519.03-35.16 515.46-35.16 511.9-35.16 508.64-33.76 505.38-32.37 503.02-30.02 500.67-27.66 499.28-24.4ZM497.67-10.07Q496.13-13.65 496.13-17.58 496.13-21.51 497.67-25.09 499.2-28.66 501.79-31.25 504.38-33.84 507.96-35.38 511.53-36.91 515.46-36.91 519.39-36.91 522.97-35.38 526.55-33.84 529.13-31.25 531.72-28.66 533.26-25.09 534.8-21.51 534.8-17.58 534.8-13.65 533.26-10.07 531.72-6.49 529.13-3.91 526.55-1.32 522.97 0.22 519.39 1.76 515.46 1.76 511.53 1.76 507.96 0.22 504.38-1.32 501.79-3.91 499.2-6.49 497.67-10.07ZM555.83-22.55Q553.77-20.48 553.77-17.58 553.77-14.67 555.83-12.61 557.89-10.55 560.8-10.55 563.7-10.55 565.77-12.61 567.83-14.67 567.83-17.58 567.83-20.48 565.77-22.55 563.7-24.61 560.8-24.61 557.89-24.61 555.83-22.55ZM554.58-11.36Q552.01-13.94 552.01-17.58 552.01-21.22 554.58-23.79 557.16-26.37 560.8-26.37 564.44-26.37 567.01-23.79 569.59-21.22 569.59-17.58 569.59-13.94 567.01-11.36 564.44-8.79 560.8-8.79 557.16-8.79 554.58-11.36ZM553.34-25.02Q550.25-21.92 550.25-17.58 550.25-13.23 553.34-10.13 556.43-7.03 560.8-7.03 565.17-7.03 568.26-10.13 571.34-13.23 571.34-17.58 571.34-21.92 568.26-25.02 565.17-28.13 560.8-28.13 556.43-28.13 553.34-25.02ZM550.14-11.4Q548.49-14.23 548.49-17.58 548.49-20.92 550.14-23.75 551.79-26.59 554.62-28.23 557.45-29.88 560.8-29.88 564.14-29.88 566.97-28.23 569.81-26.59 571.45-23.75 573.1-20.92 573.1-17.58 573.1-14.23 571.45-11.4 569.81-8.57 566.97-6.92 564.14-5.27 560.8-5.27 557.45-5.27 554.62-6.92 551.79-8.57 550.14-11.4ZM547.85-23.03Q546.73-20.43 546.73-17.58 546.73-14.72 547.85-12.12 548.96-9.52 550.85-7.63 552.74-5.74 555.34-4.63 557.94-3.52 560.8-3.52 563.65-3.52 566.25-4.63 568.85-5.74 570.75-7.63 572.64-9.52 573.75-12.12 574.86-14.72 574.86-17.58 574.86-20.43 573.75-23.03 572.64-25.63 570.75-27.53 568.85-29.42 566.25-30.53 563.65-31.64 560.8-31.64 557.94-31.64 555.34-30.53 552.74-29.42 550.85-27.53 548.96-25.63 547.85-23.03ZM546.23-11.43Q544.98-14.36 544.98-17.58 544.98-20.8 546.23-23.73 547.49-26.66 549.6-28.77 551.72-30.88 554.64-32.14 557.57-33.4 560.8-33.4 564.02-33.4 566.95-32.14 569.88-30.88 571.99-28.77 574.1-26.66 575.36-23.73 576.62-20.8 576.62-17.58 576.62-14.36 575.36-11.43 574.1-8.5 571.99-6.38 569.88-4.27 566.95-3.02 564.02-1.76 560.8-1.76 557.57-1.76 554.64-3.02 551.72-4.27 549.6-6.38 547.49-8.5 546.23-11.43ZM544.61-24.4Q543.22-21.14 543.22-17.58 543.22-14.01 544.61-10.75 546-7.5 548.36-5.14 550.71-2.78 553.97-1.39 557.23 0 560.8 0 564.36 0 567.62-1.39 570.88-2.78 573.24-5.14 575.59-7.5 576.98-10.75 578.38-14.01 578.38-17.58 578.38-21.14 576.98-24.4 575.59-27.66 573.24-30.02 570.88-32.37 567.62-33.76 564.36-35.16 560.8-35.16 557.23-35.16 553.97-33.76 550.71-32.37 548.36-30.02 546-27.66 544.61-24.4ZM543-10.07Q541.46-13.65 541.46-17.58 541.46-21.51 543-25.09 544.54-28.66 547.13-31.25 549.71-33.84 553.29-35.38 556.87-36.91 560.8-36.91 564.73-36.91 568.3-35.38 571.88-33.84 574.47-31.25 577.06-28.66 578.6-25.09 580.13-21.51 580.13-17.58 580.13-13.65 578.6-10.07 577.06-6.49 574.47-3.91 571.88-1.32 568.3 0.22 564.73 1.76 560.8 1.76 556.87 1.76 553.29 0.22 549.71-1.32 547.13-3.91 544.54-6.49 543-10.07ZM604.35-10.55L594.61-10.55 594.61-24.61Q594.61-24.61 604.35-24.61L604.35-24.61Q607.06-24.61 609-22.56 610.94-20.51 610.94-17.63L610.94-17.63Q610.94-14.65 609.01-12.6 607.08-10.55 604.35-10.55L604.35-10.55ZM596.37-22.85L596.37-12.3 604.35-12.3Q606.33-12.3 607.73-13.84 609.13-15.38 609.13-17.63L609.13-17.63Q609.13-19.78 607.73-21.31 606.33-22.85 604.35-22.85L604.35-22.85 596.37-22.85ZM592.85-26.37L592.85-8.79 604.35-8.79Q607.82-8.79 610.28-11.36 612.75-13.94 612.75-17.63L612.75-17.63Q612.75-21.24 610.27-23.8 607.79-26.37 604.35-26.37L604.35-26.37 592.85-26.37ZM604.35-7.03L591.09-7.03 591.09-28.13 604.35-28.13Q608.52-28.13 611.54-25.04 614.55-21.95 614.55-17.63L614.55-17.63Q614.55-13.21 611.55-10.12 608.55-7.03 604.35-7.03L604.35-7.03ZM589.33-29.88L589.33-5.27 604.35-5.27Q607.57-5.27 610.33-6.91 613.09-8.54 614.73-11.4 616.36-14.26 616.36-17.63L616.36-17.63Q616.36-20.92 614.73-23.75 613.09-26.59 610.32-28.23 607.55-29.88 604.35-29.88L604.35-29.88 589.33-29.88ZM604.35-3.52L587.58-3.52 587.58-31.64 604.35-31.64Q608.04-31.64 611.22-29.76 614.41-27.88 616.29-24.65 618.17-21.41 618.17-17.63L618.17-17.63Q618.17-13.79 616.29-10.53 614.41-7.28 611.22-5.4 608.04-3.52 604.35-3.52L604.35-3.52ZM585.82-33.4L585.82-1.76 604.35-1.76Q608.52-1.76 612.11-3.87 615.7-5.98 617.84-9.64 619.97-13.31 619.97-17.63L619.97-17.63Q619.97-21.88 617.84-25.52 615.7-29.17 612.1-31.29 608.5-33.4 604.35-33.4L604.35-33.4 585.82-33.4ZM604.35 0L604.35 0 584.06 0 584.06-35.16 604.35-35.16Q608.99-35.16 613-32.8 617.02-30.44 619.4-26.4 621.78-22.36 621.78-17.63L621.78-17.63Q621.78-14.04 620.38-10.77 618.97-7.5 616.62-5.14 614.26-2.78 611.04-1.39 607.82 0 604.35 0ZM636.26 0L636.26-35.16 638.01-35.16 638.01 0 636.26 0ZM632.74 0L632.74-35.16 634.5-35.16 634.5 0 632.74 0ZM629.22 0L629.22-35.16 630.98-35.16 630.98 0 629.22 0ZM625.71 0L625.71-35.16 627.47-35.16 627.47 0 625.71 0ZM651.39-35.16L651.39 0 649.63 0 649.63-35.16 651.39-35.16ZM647.87-35.16L647.87 0 646.12 0 646.12-35.16 647.87-35.16ZM644.36-35.16L644.36 0 642.6 0 642.6-35.16 644.36-35.16ZM654.91-13.21L654.91-8.79 671.73-8.79 671.73-7.03 654.91-7.03 654.91-5.27 671.73-5.27 671.73-3.52 654.91-3.52 654.91-1.76 671.73-1.76 671.73 0 653.15 0 653.15-35.16 671.73-35.16 671.73-33.4 654.91-33.4 654.91-31.64 671.73-31.64 671.73-29.88 654.91-29.88 654.91-28.13 671.73-28.13 671.73-26.37 654.91-26.37 654.91-22 670.75-22 670.75-20.24 654.91-20.24 654.91-18.48 670.75-18.48 670.75-16.72 654.91-16.72 654.91-14.97 670.75-14.97 670.75-13.21 654.91-13.21ZM692.11-16.72L692.11-16.72 689.33-16.72Q684.2-16.72 681.44-18.81 678.68-20.9 678.68-24.56L678.68-24.56Q678.68-27.98 681.93-30.26 685.18-32.54 691.04-32.54L691.04-32.54Q694.94-32.54 698.32-31.47 701.71-30.4 703.95-28.44L703.95-28.44 702.58-27.34Q700.58-28.98 697.55-29.88 694.53-30.79 691.04-30.79L691.04-30.79Q685.88-30.79 683.16-29.03 680.44-27.27 680.44-24.56L680.44-24.56Q680.44-21.63 682.67-20.06 684.91-18.48 689.33-18.48L689.33-18.48 692.01-18.48Q697.21-18.48 699.98-16.39 702.76-14.31 702.76-10.64L702.76-10.64Q702.76-7.23 699.51-4.94 696.26-2.66 690.4-2.66L690.4-2.66Q686.5-2.66 683.11-3.74 679.73-4.81 677.49-6.76L677.49-6.76 678.85-7.86Q680.86-6.23 683.88-5.32 686.91-4.42 690.4-4.42L690.4-4.42Q695.55-4.42 698.28-6.18 701-7.93 701-10.64L701-10.64Q701-13.57 698.76-15.15 696.53-16.72 692.11-16.72ZM692.11-13.21L692.11-13.21 689.33-13.21Q682.54-13.21 678.85-16.3 675.17-19.38 675.17-24.56L675.17-24.56Q675.17-26.93 676.22-29 677.27-31.08 679.23-32.65 681.2-34.23 684.25-35.14 687.3-36.06 691.04-36.06L691.04-36.06Q695.75-36.06 699.85-34.63 703.95-33.2 706.69-30.64L706.69-30.64 705.27-29.59Q702.78-31.84 699.04-33.07 695.31-34.3 691.04-34.3L691.04-34.3Q684.44-34.3 680.68-31.52 676.93-28.74 676.93-24.56L676.93-24.56Q676.93-20.14 680.15-17.55 683.37-14.97 689.33-14.97L689.33-14.97 692.01-14.97Q699.24-14.97 699.24-10.64L699.24-10.64Q699.24-8.69 697.03-7.43 694.82-6.18 690.4-6.18L690.4-6.18Q687.3-6.18 684.64-6.9 681.98-7.62 680.25-8.96L680.25-8.96 681.64-10.03Q684.69-7.93 690.4-7.93L690.4-7.93Q694.06-7.93 695.77-8.69 697.48-9.45 697.48-10.64L697.48-10.64Q697.48-12.04 696.29-12.62 695.09-13.21 692.11-13.21ZM692.11-20.24L692.11-20.24 689.33-20.24Q682.2-20.24 682.2-24.56L682.2-24.56Q682.2-26.51 684.41-27.77 686.62-29.03 691.04-29.03L691.04-29.03Q694.14-29.03 696.8-28.31 699.46-27.59 701.19-26.25L701.19-26.25 699.8-25.17Q696.75-27.27 691.04-27.27L691.04-27.27Q687.37-27.27 685.67-26.51 683.96-25.76 683.96-24.56L683.96-24.56Q683.96-23.17 685.15-22.58 686.35-22 689.33-22L689.33-22 692.11-22Q698.9-22 702.58-18.91 706.27-15.82 706.27-10.64L706.27-10.64Q706.27-8.28 705.22-6.2 704.17-4.13 702.21-2.55 700.24-0.98 697.19-0.06 694.14 0.85 690.4 0.85L690.4 0.85Q685.69 0.85 681.59-0.57 677.49-2 674.75-4.57L674.75-4.57 676.17-5.62Q678.66-3.37 682.39-2.14 686.13-0.9 690.4-0.9L690.4-0.9Q696.99-0.9 700.75-3.69 704.51-6.47 704.51-10.64L704.51-10.64Q704.51-15.06 701.29-17.65 698.07-20.24 692.11-20.24Z" opacity="1" transform="matrix(1,0,0,1,0,0)" fill="#ffffff" class="undefined-text-0" data-fill-palette-color="primary" id="text-0"></path></svg></g></svg></g></svg></g></svg></g></svg></g></svg></g></svg></g></svg></g></svg><rect width="395.52" height="247.2" fill="none" stroke="none" visibility="hidden"></rect></g></svg></g></svg>