<?xml version="1.0" standalone="yes"?>
<svg xmlns="http://www.w3.org/2000/svg" width="4167" height="4167">
<path style="fill:#f7f7f7; stroke:none;" d="M0 0L0 4167L4167 4167L4167 0L0 0z"/>
<path style="fill:#c3cce0; stroke:none;" d="M1297 1041L1297 1042L1303 1042L1297 1041z"/>
<path style="fill:#a3b4d9; stroke:none;" d="M1303 1041L1303 1042L1566 1042L1542 1041L1489 1041L1303 1041z"/>
<path style="fill:#94a8d1; stroke:none;" d="M1566 1041L1567 1042L1566 1041z"/>
<path style="fill:#a3b4d9; stroke:none;" d="M1567 1041L1567 1042L1821 1042L1798 1041L1746 1041L1567 1041z"/>
<path style="fill:#94a8d1; stroke:none;" d="M1821 1041L1822 1042L1821 1041z"/>
<path style="fill:#a3b4d9; stroke:none;" d="M1822 1041L1822 1042L2084 1042L2060 1041L2007 1041L1822 1041z"/>
<path style="fill:#94a8d1; stroke:none;" d="M2084 1041L2085 1042L2084 1041z"/>
<path style="fill:#a3b4d9; stroke:none;" d="M2085.67 1041.33L2086.33 1041.67L2085.67 1041.33z"/>
<path style="fill:#94a8d1; stroke:none;" d="M2087 1041L2088 1042L2087 1041z"/>
<path style="fill:#a3b4d9; stroke:none;" d="M2088 1041L2088 1042L2857 1042L2836 1041L2791 1041L2634 1041L2088 1041z"/>
<path style="fill:#94a8d1; stroke:none;" d="M2857 1041L2858 1042L2857 1041z"/>
<path style="fill:#a3b4d9; stroke:none;" d="M2858 1041L2858 1042L2861 1042L2858 1041z"/>
<path style="fill:#94a8d1; stroke:none;" d="M2861.67 1041.33L2862.33 1041.67L2861.67 1041.33z"/>
<path style="fill:#a3b4d9; stroke:none;" d="M2863 1041L2864 1042L2863 1041z"/>
<path style="fill:#c3cce0; stroke:none;" d="M2864 1041L2864 1042L2870 1042L2864 1041M1283.67 1042.33L1284.33 1042.67L1283.67 1042.33z"/>
<path style="fill:#a3b4d9; stroke:none;" d="M1285 1042L1286 1043L1285 1042z"/>
<path style="fill:#94a8d1; stroke:none;" d="M1286 1042L1286 1043L1292 1043L1286 1042z"/>
<path style="fill:#4167b3; stroke:none;" d="M1292 1042.42C1257.91 1046.9 1226.57 1052.81 1195 1067.31C1113.8 1104.59 1056.16 1184.85 1044.28 1273C1037.69 1321.95 1042 1373.64 1042 1423L1042 1694L1042 2525L1042 2783C1042 2819.79 1039.62 2857.47 1044.29 2894C1049.54 2935.16 1065.49 2976.11 1089.42 3010C1128.86 3065.83 1189.34 3107.13 1257 3119.74C1300.33 3127.82 1345.1 3125 1389 3125L1555 3125L2454 3125L2741 3125C2794.88 3125 2851.82 3130.17 2905 3120.58C3028.19 3098.36 3121.92 2989.22 3124.99 2864C3128.27 2729.85 3125 2595.2 3125 2461L3125 1639L3125 1392C3125 1356.57 3127.19 1320.26 3123.83 1285C3119 1234.24 3099.96 1185.27 3068.58 1145C3026.26 1090.72 2962.57 1053.04 2894 1044.29C2855.86 1039.42 2816.42 1042 2778 1042L2602 1042L1721 1042L1435 1042L1341 1042C1324.97 1042 1307.89 1040.34 1292 1042.42z"/>
<path style="fill:#94a8d1; stroke:none;" d="M2875 1042L2875 1043L2878 1043L2875 1042z"/>
<path style="fill:#a3b4d9; stroke:none;" d="M2878 1042L2878 1043L2881 1043L2878 1042z"/>
<path style="fill:#c3cce0; stroke:none;" d="M2881.67 1042.33L2882.33 1042.67L2881.67 1042.33M1274.67 1043.33L1275.33 1043.67L1274.67 1043.33z"/>
<path style="fill:#a3b4d9; stroke:none;" d="M1276 1043L1277 1044L1276 1043z"/>
<path style="fill:#94a8d1; stroke:none;" d="M1277 1043L1277 1044L1280 1044L1277 1043M2886 1043L2886 1044L2889 1044L2886 1043z"/>
<path style="fill:#a3b4d9; stroke:none;" d="M2889 1043L2890 1044L2889 1043z"/>
<path style="fill:#c3cce0; stroke:none;" d="M2890.67 1043.33L2891.33 1043.67L2890.67 1043.33M1267.67 1044.33L1268.33 1044.67L1267.67 1044.33z"/>
<path style="fill:#94a8d1; stroke:none;" d="M1269 1044L1269 1045L1272 1045L1269 1044M2895 1044L2896 1045L2895 1044z"/>
<path style="fill:#a3b4d9; stroke:none;" d="M2896 1044L2897 1045L2896 1044z"/>
<path style="fill:#c3cce0; stroke:none;" d="M2897.67 1044.33L2898.33 1044.67L2897.67 1044.33M1261.67 1045.33L1262.33 1045.67L1261.67 1045.33z"/>
<path style="fill:#94a8d1; stroke:none;" d="M1263 1045L1263 1046L1266 1046L1263 1045M2901.67 1045.33L2902.33 1045.67L2901.67 1045.33z"/>
<path style="fill:#a3b4d9; stroke:none;" d="M2903 1045L2904 1046L2903 1045z"/>
<path style="fill:#c3cce0; stroke:none;" d="M2904 1045L2905 1046L2904 1045M1256 1046L1257 1047L1256 1046z"/>
<path style="fill:#a3b4d9; stroke:none;" d="M1257 1046L1258 1047L1257 1046z"/>
<path style="fill:#94a8d1; stroke:none;" d="M1258.67 1046.33L1259.33 1046.67L1258.67 1046.33M2907 1046L2908 1047L2907 1046z"/>
<path style="fill:#a3b4d9; stroke:none;" d="M2908 1046L2909 1047L2908 1046z"/>
<path style="fill:#c3cce0; stroke:none;" d="M2909 1046L2910 1047L2909 1046M1252 1047L1253 1048L1252 1047z"/>
<path style="fill:#94a8d1; stroke:none;" d="M1253.67 1047.33L1254.33 1047.67L1253.67 1047.33M2912 1047L2913 1048L2912 1047z"/>
<path style="fill:#a3b4d9; stroke:none;" d="M2913 1047L2914 1048L2913 1047z"/>
<path style="fill:#c3cce0; stroke:none;" d="M2914 1047L2915 1048L2914 1047M1247 1048L1248 1049L1247 1048z"/>
<path style="fill:#a3b4d9; stroke:none;" d="M1248 1048L1249 1049L1248 1048z"/>
<path style="fill:#94a8d1; stroke:none;" d="M1249 1048L1250 1049L1249 1048M2917 1048L2918 1049L2917 1048z"/>
<path style="fill:#c3cce0; stroke:none;" d="M2918 1048L2919 1049L2918 1048M1243 1049L1244 1050L1243 1049z"/>
<path style="fill:#a3b4d9; stroke:none;" d="M1244 1049L1245 1050L1244 1049z"/>
<path style="fill:#94a8d1; stroke:none;" d="M1245 1049L1246 1050L1245 1049M2921 1049L2922 1050L2921 1049z"/>
<path style="fill:#c3cce0; stroke:none;" d="M2922 1049L2923 1050L2922 1049M1239 1050L1240 1051L1239 1050z"/>
<path style="fill:#a3b4d9; stroke:none;" d="M1240 1050L1241 1051L1240 1050z"/>
<path style="fill:#94a8d1; stroke:none;" d="M1241 1050L1242 1051L1241 1050M2925 1050L2926 1051L2925 1050z"/>
<path style="fill:#c3cce0; stroke:none;" d="M2926 1050L2927 1051L2926 1050M1236 1051L1237 1052L1236 1051z"/>
<path style="fill:#94a8d1; stroke:none;" d="M1237 1051L1238 1052L1237 1051z"/>
<path style="fill:#a3b4d9; stroke:none;" d="M2929 1051L2930 1052L2929 1051z"/>
<path style="fill:#c3cce0; stroke:none;" d="M2930 1051L2931 1052L2930 1051M1232 1052L1233 1053L1232 1052z"/>
<path style="fill:#a3b4d9; stroke:none;" d="M1233 1052L1234 1053L1233 1052z"/>
<path style="fill:#94a8d1; stroke:none;" d="M1234 1052L1235 1053L1234 1052M2932 1052L2933 1053L2932 1052z"/>
<path style="fill:#c3cce0; stroke:none;" d="M2933 1052L2934 1053L2933 1052M1229 1053L1230 1054L1229 1053z"/>
<path style="fill:#94a8d1; stroke:none;" d="M1230 1053L1231 1054L1230 1053M2935 1053L2936 1054L2935 1053z"/>
<path style="fill:#a3b4d9; stroke:none;" d="M2936 1053L2937 1054L2936 1053z"/>
<path style="fill:#c3cce0; stroke:none;" d="M1226 1054L1227 1055L1226 1054z"/>
<path style="fill:#94a8d1; stroke:none;" d="M1227 1054L1228 1055L1227 1054z"/>
<path style="fill:#a3b4d9; stroke:none;" d="M2939 1054L2940 1055L2939 1054z"/>
<path style="fill:#c3cce0; stroke:none;" d="M1223 1055L1224 1056L1223 1055z"/>
<path style="fill:#94a8d1; stroke:none;" d="M1224 1055L1225 1056L1224 1055z"/>
<path style="fill:#a3b4d9; stroke:none;" d="M2942 1055L2943 1056L2942 1055z"/>
<path style="fill:#c3cce0; stroke:none;" d="M1220 1056L1221 1057L1220 1056z"/>
<path style="fill:#94a8d1; stroke:none;" d="M1221 1056L1222 1057L1221 1056z"/>
<path style="fill:#a3b4d9; stroke:none;" d="M2945 1056L2946 1057L2945 1056z"/>
<path style="fill:#c3cce0; stroke:none;" d="M1217 1057L1218 1058L1217 1057z"/>
<path style="fill:#94a8d1; stroke:none;" d="M1218 1057L1219 1058L1218 1057M2947 1057L2948 1058L2947 1057z"/>
<path style="fill:#c3cce0; stroke:none;" d="M2948 1057L2949 1058L2948 1057z"/>
<path style="fill:#a3b4d9; stroke:none;" d="M1215 1058L1216 1059L1215 1058z"/>
<path style="fill:#94a8d1; stroke:none;" d="M2950 1058L2951 1059L2950 1058z"/>
<path style="fill:#c3cce0; stroke:none;" d="M2951 1058L2952 1059L2951 1058M1212 1059L1213 1060L1212 1059z"/>
<path style="fill:#94a8d1; stroke:none;" d="M1213 1059L1214 1060L1213 1059z"/>
<path style="fill:#a3b4d9; stroke:none;" d="M2953 1059L2954 1060L2953 1059M1210 1060L1211 1061L1210 1060z"/>
<path style="fill:#94a8d1; stroke:none;" d="M2955 1060L2956 1061L2955 1060z"/>
<path style="fill:#c3cce0; stroke:none;" d="M2956 1060L2957 1061L2956 1060M1207 1061L1208 1062L1207 1061z"/>
<path style="fill:#94a8d1; stroke:none;" d="M1208 1061L1209 1062L1208 1061z"/>
<path style="fill:#a3b4d9; stroke:none;" d="M2958 1061L2959 1062L2958 1061M1205 1062L1206 1063L1205 1062z"/>
<path style="fill:#94a8d1; stroke:none;" d="M2960 1062L2961 1063L2960 1062z"/>
<path style="fill:#c3cce0; stroke:none;" d="M2961 1062L2962 1063L2961 1062M1202 1063L1203 1064L1202 1063z"/>
<path style="fill:#94a8d1; stroke:none;" d="M1203 1063L1204 1064L1203 1063z"/>
<path style="fill:#c3cce0; stroke:none;" d="M2963 1063L2964 1064L2963 1063M1200 1064L1201 1065L1200 1064z"/>
<path style="fill:#94a8d1; stroke:none;" d="M1201 1064L1202 1065L1201 1064z"/>
<path style="fill:#a3b4d9; stroke:none;" d="M2965 1064L2966 1065L2965 1064M1198 1065L1199 1066L1198 1065z"/>
<path style="fill:#94a8d1; stroke:none;" d="M1199 1065L1200 1066L1199 1065M2967 1065L2968 1066L2967 1065z"/>
<path style="fill:#a3b4d9; stroke:none;" d="M1196 1066L1197 1067L1196 1066z"/>
<path style="fill:#94a8d1; stroke:none;" d="M2969 1066L2970 1067L2969 1066z"/>
<path style="fill:#c3cce0; stroke:none;" d="M2970 1066L2971 1067L2970 1066z"/>
<path style="fill:#94a8d1; stroke:none;" d="M1194 1067L1195 1068L1194 1067M2971 1067L2972 1068L2971 1067z"/>
<path style="fill:#c3cce0; stroke:none;" d="M2972 1067L2973 1068L2972 1067z"/>
<path style="fill:#94a8d1; stroke:none;" d="M1192 1068L1193 1069L1192 1068z"/>
<path style="fill:#c3cce0; stroke:none;" d="M2974 1068L2975 1069L2974 1068z"/>
<path style="fill:#94a8d1; stroke:none;" d="M1190 1069L1191 1070L1190 1069z"/>
<path style="fill:#c3cce0; stroke:none;" d="M2976 1069L2977 1070L2976 1069z"/>
<path style="fill:#94a8d1; stroke:none;" d="M1188 1070L1189 1071L1188 1070z"/>
<path style="fill:#c3cce0; stroke:none;" d="M2978 1070L2979 1071L2978 1070z"/>
<path style="fill:#94a8d1; stroke:none;" d="M1186 1071L1187 1072L1186 1071z"/>
<path style="fill:#c3cce0; stroke:none;" d="M2980 1071L2981 1072L2980 1071z"/>
<path style="fill:#a3b4d9; stroke:none;" d="M1184 1072L1185 1073L1184 1072z"/>
<path style="fill:#94a8d1; stroke:none;" d="M2981 1072L2982 1073L2981 1072z"/>
<path style="fill:#c3cce0; stroke:none;" d="M2982 1072L2983 1073L2982 1072z"/>
<path style="fill:#a3b4d9; stroke:none;" d="M1182 1073L1183 1074L1182 1073z"/>
<path style="fill:#94a8d1; stroke:none;" d="M2983 1073L2984 1074L2983 1073z"/>
<path style="fill:#c3cce0; stroke:none;" d="M1180 1074L1181 1075L1180 1074z"/>
<path style="fill:#94a8d1; stroke:none;" d="M2985 1074L2986 1075L2985 1074z"/>
<path style="fill:#c3cce0; stroke:none;" d="M1178 1075L1179 1076L1178 1075z"/>
<path style="fill:#94a8d1; stroke:none;" d="M1179 1075L1180 1076L1179 1075z"/>
<path style="fill:#a3b4d9; stroke:none;" d="M2987 1075L2988 1076L2987 1075z"/>
<path style="fill:#94a8d1; stroke:none;" d="M1177 1076L1178 1077L1177 1076z"/>
<path style="fill:#c3cce0; stroke:none;" d="M2989 1076L2990 1077L2989 1076z"/>
<path style="fill:#a3b4d9; stroke:none;" d="M1175 1077L1176 1078L1175 1077z"/>
<path style="fill:#c3cce0; stroke:none;" d="M2991 1077L2992 1078L2991 1077M1173 1078L1174 1079L1173 1078z"/>
<path style="fill:#94a8d1; stroke:none;" d="M2992 1078L2993 1079L2992 1078z"/>
<path style="fill:#c3cce0; stroke:none;" d="M1171 1079L1172 1080L1171 1079z"/>
<path style="fill:#94a8d1; stroke:none;" d="M1172 1079L1173 1080L1172 1079z"/>
<path style="fill:#a3b4d9; stroke:none;" d="M2994 1079L2995 1080L2994 1079z"/>
<path style="fill:#94a8d1; stroke:none;" d="M1170 1080L1171 1081L1170 1080z"/>
<path style="fill:#c3cce0; stroke:none;" d="M2996 1080L2997 1081L2996 1080M1168 1081L1169 1082L1168 1081z"/>
<path style="fill:#94a8d1; stroke:none;" d="M2997 1081L2998 1082L2997 1081M1167 1082L1168 1083L1167 1082z"/>
<path style="fill:#a3b4d9; stroke:none;" d="M2999 1082L3000 1083L2999 1082z"/>
<path style="fill:#c3cce0; stroke:none;" d="M1165 1083L1166 1084L1165 1083z"/>
<path style="fill:#94a8d1; stroke:none;" d="M3000 1083L3001 1084L3000 1083z"/>
<path style="fill:#c3cce0; stroke:none;" d="M3001 1083L3002 1084L3001 1083M1163 1084L1164 1085L1163 1084z"/>
<path style="fill:#94a8d1; stroke:none;" d="M1164 1084L1165 1085L1164 1084z"/>
<path style="fill:#a3b4d9; stroke:none;" d="M3002 1084L3003 1085L3002 1084M1162 1085L1163 1086L1162 1085z"/>
<path style="fill:#c3cce0; stroke:none;" d="M3004 1085L3005 1086L3004 1085M1160 1086L1161 1087L1160 1086z"/>
<path style="fill:#94a8d1; stroke:none;" d="M1161 1086L1162 1087L1161 1086z"/>
<path style="fill:#a3b4d9; stroke:none;" d="M3005 1086L3006 1087L3005 1086M1159 1087L1160 1088L1159 1087z"/>
<path style="fill:#c3cce0; stroke:none;" d="M3007 1087L3008 1088L3007 1087z"/>
<path style="fill:#94a8d1; stroke:none;" d="M1158 1088L1159 1089L1158 1088z"/>
<path style="fill:#a3b4d9; stroke:none;" d="M3008 1088L3009 1089L3008 1088z"/>
<path style="fill:#c3cce0; stroke:none;" d="M1156 1089L1157 1090L1156 1089z"/>
<path style="fill:#94a8d1; stroke:none;" d="M1155 1090L1156 1091L1155 1090z"/>
<path style="fill:#a3b4d9; stroke:none;" d="M3011 1090L3012 1091L3011 1090z"/>
<path style="fill:#c3cce0; stroke:none;" d="M1153 1091L1154 1092L1153 1091z"/>
<path style="fill:#94a8d1; stroke:none;" d="M3012 1091L3013 1092L3012 1091M1152 1092L1153 1093L1152 1092z"/>
<path style="fill:#c3cce0; stroke:none;" d="M3014 1092L3015 1093L3014 1092z"/>
<path style="fill:#94a8d1; stroke:none;" d="M1151 1093L1152 1094L1151 1093z"/>
<path style="fill:#a3b4d9; stroke:none;" d="M3015 1093L3016 1094L3015 1093z"/>
<path style="fill:#c3cce0; stroke:none;" d="M1149 1094L1150 1095L1149 1094z"/>
<path style="fill:#94a8d1; stroke:none;" d="M1148 1095L1149 1096L1148 1095z"/>
<path style="fill:#c3cce0; stroke:none;" d="M3018 1095L3019 1096L3018 1095z"/>
<path style="fill:#94a8d1; stroke:none;" d="M1147 1096L1148 1097L1147 1096z"/>
<path style="fill:#a3b4d9; stroke:none;" d="M3019 1096L3020 1097L3019 1096z"/>
<path style="fill:#c3cce0; stroke:none;" d="M1145 1097L1146 1098L1145 1097z"/>
<path style="fill:#94a8d1; stroke:none;" d="M3020 1097L3021 1098L3020 1097z"/>
<path style="fill:#a3b4d9; stroke:none;" d="M1144 1098L1145 1099L1144 1098z"/>
<path style="fill:#c3cce0; stroke:none;" d="M3022 1098L3023 1099L3022 1098z"/>
<path style="fill:#94a8d1; stroke:none;" d="M1143 1099L1144 1100L1143 1099z"/>
<path style="fill:#c3cce0; stroke:none;" d="M3023 1099L3024 1100L3023 1099M1141 1100L1142 1101L1141 1100z"/>
<path style="fill:#94a8d1; stroke:none;" d="M3024 1100L3025 1101L3024 1100z"/>
<path style="fill:#c3cce0; stroke:none;" d="M1140 1101L1141 1102L1140 1101z"/>
<path style="fill:#a3b4d9; stroke:none;" d="M1139 1102L1140 1103L1139 1102z"/>
<path style="fill:#94a8d1; stroke:none;" d="M1138 1103L1139 1104L1138 1103z"/>
<path style="fill:#c3cce0; stroke:none;" d="M3028 1103L3029 1104L3028 1103z"/>
<path style="fill:#a3b4d9; stroke:none;" d="M3029 1104L3030 1105L3029 1104z"/>
<path style="fill:#c3cce0; stroke:none;" d="M1135 1105L1136 1106L1135 1105z"/>
<path style="fill:#94a8d1; stroke:none;" d="M3030 1105L3031 1106L3030 1105z"/>
<path style="fill:#c3cce0; stroke:none;" d="M1134 1106L1135 1107L1134 1106z"/>
<path style="fill:#a3b4d9; stroke:none;" d="M1133 1107L1134 1108L1133 1107M1132 1108L1133 1109L1132 1108z"/>
<path style="fill:#c3cce0; stroke:none;" d="M3034 1108L3035 1109L3034 1108z"/>
<path style="fill:#94a8d1; stroke:none;" d="M1131 1109L1132 1110L1131 1109z"/>
<path style="fill:#c3cce0; stroke:none;" d="M3035 1109L3036 1110L3035 1109z"/>
<path style="fill:#94a8d1; stroke:none;" d="M1130 1110L1131 1111L1130 1110z"/>
<path style="fill:#c3cce0; stroke:none;" d="M3036 1110L3037 1111L3036 1110z"/>
<path style="fill:#a3b4d9; stroke:none;" d="M3037 1111L3038 1112L3037 1111z"/>
<path style="fill:#94a8d1; stroke:none;" d="M3038 1112L3039 1113L3038 1112z"/>
<path style="fill:#c3cce0; stroke:none;" d="M1126 1113L1127 1114L1126 1113z"/>
<path style="fill:#94a8d1; stroke:none;" d="M3039 1113L3040 1114L3039 1113z"/>
<path style="fill:#c3cce0; stroke:none;" d="M1125 1114L1126 1115L1125 1114z"/>
<path style="fill:#94a8d1; stroke:none;" d="M3040 1114L3041 1115L3040 1114z"/>
<path style="fill:#c3cce0; stroke:none;" d="M1124 1115L1125 1116L1124 1115M1123 1116L1124 1117L1123 1116M1122 1117L1123 1118L1122 1117M1121 1118L1122 1119L1121 1118M1120 1119L1121 1120L1120 1119M1119 1120L1120 1121L1119 1120M1118 1121L1119 1122L1118 1121M1117 1122L1118 1123L1117 1122M1116 1123L1117 1124L1116 1123M1115 1124L1116 1125L1115 1124M1114 1125L1115 1126L1114 1125M1113 1126L1114 1127L1113 1126z"/>
<path style="fill:#94a8d1; stroke:none;" d="M3052 1126L3053 1127L3052 1126M3053 1127L3054 1128L3053 1127M3054 1128L3055 1129L3054 1128z"/>
<path style="fill:#a3b4d9; stroke:none;" d="M3055 1129L3056 1130L3055 1129z"/>
<path style="fill:#94a8d1; stroke:none;" d="M1110 1130L1111 1131L1110 1130z"/>
<path style="fill:#c3cce0; stroke:none;" d="M3056 1130L3057 1131L3056 1130z"/>
<path style="fill:#94a8d1; stroke:none;" d="M1109 1131L1110 1132L1109 1131z"/>
<path style="fill:#c3cce0; stroke:none;" d="M3057 1131L3058 1132L3057 1131z"/>
<path style="fill:#a3b4d9; stroke:none;" d="M1108 1132L1109 1133L1108 1132M1107 1133L1108 1134L1107 1133z"/>
<path style="fill:#c3cce0; stroke:none;" d="M1106 1134L1107 1135L1106 1134M1105 1135L1106 1136L1105 1135z"/>
<path style="fill:#94a8d1; stroke:none;" d="M3060 1135L3061 1136L3060 1135M3061 1136L3062 1137L3061 1136z"/>
<path style="fill:#a3b4d9; stroke:none;" d="M3062 1137L3063 1138L3062 1137z"/>
<path style="fill:#94a8d1; stroke:none;" d="M1103 1138L1104 1139L1103 1138z"/>
<path style="fill:#c3cce0; stroke:none;" d="M3063 1138L3064 1139L3063 1138z"/>
<path style="fill:#a3b4d9; stroke:none;" d="M1102 1139L1103 1140L1102 1139z"/>
<path style="fill:#c3cce0; stroke:none;" d="M3064 1139L3065 1140L3064 1139M1101 1140L1102 1141L1101 1140M1100 1141L1101 1142L1100 1141z"/>
<path style="fill:#94a8d1; stroke:none;" d="M3065 1141L3066 1142L3065 1141M3066 1142L3067 1143L3066 1142M1099 1143L1100 1144L1099 1143z"/>
<path style="fill:#c3cce0; stroke:none;" d="M3067 1143L3068 1144L3067 1143z"/>
<path style="fill:#a3b4d9; stroke:none;" d="M1098 1144L1099 1145L1098 1144z"/>
<path style="fill:#c3cce0; stroke:none;" d="M1097 1145L1098 1146L1097 1145z"/>
<path style="fill:#94a8d1; stroke:none;" d="M3069 1146L3070 1147L3069 1146M1096 1147L1097 1148L1096 1147z"/>
<path style="fill:#a3b4d9; stroke:none;" d="M3070 1147L3071 1148L3070 1147z"/>
<path style="fill:#94a8d1; stroke:none;" d="M1095 1148L1096 1149L1095 1148z"/>
<path style="fill:#c3cce0; stroke:none;" d="M1094 1149L1095 1150L1094 1149z"/>
<path style="fill:#94a8d1; stroke:none;" d="M3072 1150L3073 1151L3072 1150M1093 1151L1094 1152L1093 1151z"/>
<path style="fill:#a3b4d9; stroke:none;" d="M3073 1151L3074 1152L3073 1151z"/>
<path style="fill:#94a8d1; stroke:none;" d="M1092 1152L1093 1153L1092 1152z"/>
<path style="fill:#c3cce0; stroke:none;" d="M1091 1153L1092 1154L1091 1153z"/>
<path style="fill:#94a8d1; stroke:none;" d="M3075 1154L3076 1155L3075 1154M1090 1155L1091 1156L1090 1155z"/>
<path style="fill:#c3cce0; stroke:none;" d="M3076 1155L3077 1156L3076 1155M1089 1156L1090 1157L1089 1156z"/>
<path style="fill:#94a8d1; stroke:none;" d="M3077 1157L3078 1158L3077 1157M1088 1158L1089 1159L1088 1158z"/>
<path style="fill:#a3b4d9; stroke:none;" d="M3078 1158L3079 1159L3078 1158M1087 1159L1088 1160L1087 1159z"/>
<path style="fill:#c3cce0; stroke:none;" d="M1086 1160L1087 1161L1086 1160z"/>
<path style="fill:#94a8d1; stroke:none;" d="M3079 1160L3080 1161L3079 1160M1086 1161L1087 1162L1086 1161z"/>
<path style="fill:#a3b4d9; stroke:none;" d="M3080 1161L3081 1162L3080 1161M1085 1162L1086 1163L1085 1162z"/>
<path style="fill:#c3cce0; stroke:none;" d="M1084 1163L1085 1164L1084 1163z"/>
<path style="fill:#94a8d1; stroke:none;" d="M3081 1163L3082 1164L3081 1163M1084 1164L1085 1165L1084 1164z"/>
<path style="fill:#c3cce0; stroke:none;" d="M3082 1164L3083 1165L3082 1164M1083 1165L1084 1166L1083 1165z"/>
<path style="fill:#94a8d1; stroke:none;" d="M3083 1166L3084 1167L3083 1166M1082 1167L1083 1168L1082 1167z"/>
<path style="fill:#c3cce0; stroke:none;" d="M3084 1167L3085 1168L3084 1167M1081 1168L1082 1169L1081 1168z"/>
<path style="fill:#a3b4d9; stroke:none;" d="M3085 1169L3086 1170L3085 1169z"/>
<path style="fill:#94a8d1; stroke:none;" d="M1080 1170L1081 1171L1080 1170z"/>
<path style="fill:#c3cce0; stroke:none;" d="M1079 1171L1080 1172L1079 1171z"/>
<path style="fill:#94a8d1; stroke:none;" d="M3086 1171L3087 1172L3086 1171M1079 1172L1080 1173L1079 1172z"/>
<path style="fill:#c3cce0; stroke:none;" d="M3087 1172L3088 1173L3087 1172M1078 1173L1079 1174L1078 1173z"/>
<path style="fill:#a3b4d9; stroke:none;" d="M3088 1174L3089 1175L3088 1174M1077 1175L1078 1176L1077 1175z"/>
<path style="fill:#94a8d1; stroke:none;" d="M3089 1176L3090 1177L3089 1176M1076 1177L1077 1178L1076 1177z"/>
<path style="fill:#c3cce0; stroke:none;" d="M3090 1177L3091 1178L3090 1177M1075 1178L1076 1179L1075 1178z"/>
<path style="fill:#94a8d1; stroke:none;" d="M1075 1179L1076 1180L1075 1179z"/>
<path style="fill:#c3cce0; stroke:none;" d="M3091 1179L3092 1180L3091 1179M1074 1180L1075 1181L1074 1180z"/>
<path style="fill:#a3b4d9; stroke:none;" d="M3092 1181L3093 1182L3092 1181M1073 1182L1074 1183L1073 1182z"/>
<path style="fill:#94a8d1; stroke:none;" d="M3093 1183L3094 1184L3093 1183z"/>
<path style="fill:#a3b4d9; stroke:none;" d="M1072 1184L1073 1185L1072 1184z"/>
<path style="fill:#94a8d1; stroke:none;" d="M3094 1185L3095 1186L3094 1185M1071 1186L1072 1187L1071 1186M3095 1187L3096 1188L3095 1187M1070 1188L1071 1189L1070 1188M3096 1189L3097 1190L3096 1189M1069 1190L1070 1191L1069 1190M3097 1191L3098 1192L3097 1191M1068 1192L1069 1193L1068 1192M3098 1193L3099 1194L3098 1193M1067 1194L1068 1195L1067 1194M3099 1195L3100 1196L3099 1195z"/>
<path style="fill:#a3b4d9; stroke:none;" d="M1066 1196L1067 1197L1066 1196M3100 1197L3101 1198L3100 1197M1065 1198L1066 1199L1065 1198z"/>
<path style="fill:#94a8d1; stroke:none;" d="M1065 1199L1066 1200L1065 1199z"/>
<path style="fill:#a3b4d9; stroke:none;" d="M3101 1199L3102 1200L3101 1199z"/>
<path style="fill:#c3cce0; stroke:none;" d="M1064 1200L1065 1201L1064 1200z"/>
<path style="fill:#94a8d1; stroke:none;" d="M1064 1201L1065 1202L1064 1201z"/>
<path style="fill:#c3cce0; stroke:none;" d="M3102 1201L3103 1202L3102 1201M1063 1202L1064 1203L1063 1202z"/>
<path style="fill:#94a8d1; stroke:none;" d="M3102 1202L3103 1203L3102 1202M1063 1203L1064 1204L1063 1203z"/>
<path style="fill:#c3cce0; stroke:none;" d="M3103 1203L3104 1204L3103 1203z"/>
<path style="fill:#94a8d1; stroke:none;" d="M3103 1204L3104 1205L3103 1204z"/>
<path style="fill:#a3b4d9; stroke:none;" d="M1062 1205L1063 1206L1062 1205M3104 1206L3105 1207L3104 1206z"/>
<path style="fill:#c3cce0; stroke:none;" d="M1061 1207L1062 1208L1061 1207z"/>
<path style="fill:#94a8d1; stroke:none;" d="M1061 1208L1062 1209L1061 1208z"/>
<path style="fill:#c3cce0; stroke:none;" d="M3105 1208L3106 1209L3105 1208z"/>
<path style="fill:#94a8d1; stroke:none;" d="M3105 1209L3106 1210L3105 1209z"/>
<path style="fill:#a3b4d9; stroke:none;" d="M1060 1210L1061 1211L1060 1210z"/>
<path style="fill:#94a8d1; stroke:none;" d="M3106 1211L3107 1212L3106 1211z"/>
<path style="fill:#c3cce0; stroke:none;" d="M1059 1212L1060 1213L1059 1212z"/>
<path style="fill:#94a8d1; stroke:none;" d="M1059 1213L1060 1214L1059 1213z"/>
<path style="fill:#c3cce0; stroke:none;" d="M3107 1213L3108 1214L3107 1213z"/>
<path style="fill:#94a8d1; stroke:none;" d="M3107 1214L3108 1215L3107 1214z"/>
<path style="fill:#a3b4d9; stroke:none;" d="M1058 1215L1059 1216L1058 1215M3108 1216L3109 1217L3108 1216z"/>
<path style="fill:#c3cce0; stroke:none;" d="M1057 1217L1058 1218L1057 1217z"/>
<path style="fill:#94a8d1; stroke:none;" d="M1057 1218L1058 1219L1057 1218M3109 1219L3110 1220L3109 1219z"/>
<path style="fill:#c3cce0; stroke:none;" d="M1056 1220L1057 1221L1056 1220z"/>
<path style="fill:#94a8d1; stroke:none;" d="M1056 1221L1057 1222L1056 1221M3110 1222L3111 1223L3110 1222z"/>
<path style="fill:#c3cce0; stroke:none;" d="M1055 1223L1056 1224L1055 1223z"/>
<path style="fill:#94a8d1; stroke:none;" d="M1055 1224L1056 1225L1055 1224z"/>
<path style="fill:#c3cce0; stroke:none;" d="M3111 1224L3112 1225L3111 1224z"/>
<path style="fill:#94a8d1; stroke:none;" d="M3111 1225L3112 1226L3111 1225z"/>
<path style="fill:#c3cce0; stroke:none;" d="M1054 1226L1055 1227L1054 1226z"/>
<path style="fill:#94a8d1; stroke:none;" d="M1054 1227L1055 1228L1054 1227z"/>
<path style="fill:#c3cce0; stroke:none;" d="M3112 1227L3113 1228L3112 1227z"/>
<path style="fill:#94a8d1; stroke:none;" d="M3112 1228L3113 1229L3112 1228z"/>
<path style="fill:#c3cce0; stroke:none;" d="M1053 1229L1054 1230L1053 1229z"/>
<path style="fill:#94a8d1; stroke:none;" d="M1053 1230L1054 1231L1053 1230z"/>
<path style="fill:#c3cce0; stroke:none;" d="M3113 1230L3114 1231L3113 1230z"/>
<path style="fill:#a3b4d9; stroke:none;" d="M3113 1231L3114 1232L3113 1231z"/>
<path style="fill:#c3cce0; stroke:none;" d="M1052 1232L1053 1233L1052 1232z"/>
<path style="fill:#a3b4d9; stroke:none;" d="M1052 1233L1053 1234L1052 1233z"/>
<path style="fill:#94a8d1; stroke:none;" d="M1052 1234L1053 1235L1052 1234z"/>
<path style="fill:#c3cce0; stroke:none;" d="M3114 1234L3115 1235L3114 1234z"/>
<path style="fill:#94a8d1; stroke:none;" d="M3114 1235L3115 1236L3114 1235z"/>
<path style="fill:#c3cce0; stroke:none;" d="M1051 1236L1052 1237L1051 1236z"/>
<path style="fill:#94a8d1; stroke:none;" d="M1051 1237L1052 1238L1051 1237z"/>
<path style="fill:#c3cce0; stroke:none;" d="M3115 1237L3116 1238L3115 1237z"/>
<path style="fill:#94a8d1; stroke:none;" d="M3115 1238L3116 1239L3115 1238z"/>
<path style="fill:#c3cce0; stroke:none;" d="M1050 1239L1051 1240L1050 1239z"/>
<path style="fill:#a3b4d9; stroke:none;" d="M1050 1240L1051 1241L1050 1240z"/>
<path style="fill:#94a8d1; stroke:none;" d="M1050 1241L1051 1242L1050 1241z"/>
<path style="fill:#c3cce0; stroke:none;" d="M3116 1241L3117 1242L3116 1241z"/>
<path style="fill:#94a8d1; stroke:none;" d="M3116 1242L3117 1243L3116 1242z"/>
<path style="fill:#c3cce0; stroke:none;" d="M1049 1243L1050 1244L1049 1243z"/>
<path style="fill:#a3b4d9; stroke:none;" d="M1049 1244L1050 1245L1049 1244z"/>
<path style="fill:#94a8d1; stroke:none;" d="M1049 1245L1050 1246L1049 1245z"/>
<path style="fill:#c3cce0; stroke:none;" d="M3117 1245L3118 1246L3117 1245z"/>
<path style="fill:#94a8d1; stroke:none;" d="M3117 1246L3118 1247L3117 1246z"/>
<path style="fill:#c3cce0; stroke:none;" d="M1048 1247L1049 1248L1048 1247z"/>
<path style="fill:#a3b4d9; stroke:none;" d="M1048 1248L1049 1249L1048 1248z"/>
<path style="fill:#94a8d1; stroke:none;" d="M1048 1249L1049 1250L1048 1249z"/>
<path style="fill:#c3cce0; stroke:none;" d="M3118 1249L3119 1250L3118 1249z"/>
<path style="fill:#a3b4d9; stroke:none;" d="M3118 1250L3119 1251L3118 1250z"/>
<path style="fill:#94a8d1; stroke:none;" d="M3118 1251L3119 1252L3118 1251z"/>
<path style="fill:#c3cce0; stroke:none;" d="M1047 1252L1048 1253L1047 1252z"/>
<path style="fill:#94a8d1; stroke:none;" d="M1047.33 1253.67L1047.67 1254.33L1047.33 1253.67z"/>
<path style="fill:#a3b4d9; stroke:none;" d="M3119 1254L3120 1255L3119 1254z"/>
<path style="fill:#94a8d1; stroke:none;" d="M3119 1255L3120 1256L3119 1255z"/>
<path style="fill:#c3cce0; stroke:none;" d="M1046 1256L1047 1257L1046 1256z"/>
<path style="fill:#a3b4d9; stroke:none;" d="M1046 1257L1047 1258L1046 1257z"/>
<path style="fill:#94a8d1; stroke:none;" d="M1046.33 1258.67L1046.67 1259.33L1046.33 1258.67z"/>
<path style="fill:#c3cce0; stroke:none;" d="M3120 1258L3121 1259L3120 1258z"/>
<path style="fill:#a3b4d9; stroke:none;" d="M3120 1259L3121 1260L3120 1259z"/>
<path style="fill:#94a8d1; stroke:none;" d="M3120.33 1260.67L3120.67 1261.33L3120.33 1260.67z"/>
<path style="fill:#c3cce0; stroke:none;" d="M1045.33 1261.67L1045.67 1262.33L1045.33 1261.67z"/>
<path style="fill:#94a8d1; stroke:none;" d="M1045 1263L1045 1266L1046 1266L1045 1263z"/>
<path style="fill:#c3cce0; stroke:none;" d="M3121 1264L3122 1265L3121 1264z"/>
<path style="fill:#a3b4d9; stroke:none;" d="M3121 1265L3122 1266L3121 1265z"/>
<path style="fill:#94a8d1; stroke:none;" d="M3121.33 1266.67L3121.67 1267.33L3121.33 1266.67z"/>
<path style="fill:#c3cce0; stroke:none;" d="M1044.33 1267.67L1044.67 1268.33L1044.33 1267.67z"/>
<path style="fill:#94a8d1; stroke:none;" d="M1044 1269L1044 1272L1045 1272L1044 1269z"/>
<path style="fill:#c3cce0; stroke:none;" d="M3122 1270L3123 1271L3122 1270z"/>
<path style="fill:#a3b4d9; stroke:none;" d="M3122.33 1271.67L3122.67 1272.33L3122.33 1271.67z"/>
<path style="fill:#94a8d1; stroke:none;" d="M3122.33 1273.67L3122.67 1274.33L3122.33 1273.67z"/>
<path style="fill:#c3cce0; stroke:none;" d="M1043.33 1274.67L1043.67 1275.33L1043.33 1274.67z"/>
<path style="fill:#a3b4d9; stroke:none;" d="M1043 1276L1044 1277L1043 1276z"/>
<path style="fill:#94a8d1; stroke:none;" d="M1043 1277L1043 1280L1044 1280L1043 1277z"/>
<path style="fill:#c3cce0; stroke:none;" d="M3123.33 1277.67L3123.67 1278.33L3123.33 1277.67z"/>
<path style="fill:#a3b4d9; stroke:none;" d="M3123.33 1279.67L3123.67 1280.33L3123.33 1279.67z"/>
<path style="fill:#94a8d1; stroke:none;" d="M3123.33 1281.67L3123.67 1282.33L3123.33 1281.67z"/>
<path style="fill:#c3cce0; stroke:none;" d="M1042.33 1283.67L1042.67 1284.33L1042.33 1283.67z"/>
<path style="fill:#a3b4d9; stroke:none;" d="M1042 1285L1043 1286L1042 1285z"/>
<path style="fill:#94a8d1; stroke:none;" d="M1042 1286L1042 1292L1043 1292L1042 1286z"/>
<path style="fill:#c3cce0; stroke:none;" d="M3124 1287L3124 1290L3125 1290L3124 1287z"/>
<path style="fill:#a3b4d9; stroke:none;" d="M3124 1290L3124 1293L3125 1293L3124 1290z"/>
<path style="fill:#94a8d1; stroke:none;" d="M3124 1293L3124 1298L3125 1298L3124 1293z"/>
<path style="fill:#c3cce0; stroke:none;" d="M1041 1296L1041 1303L1042 1303L1041 1296z"/>
<path style="fill:#a3b4d9; stroke:none;" d="M1041 1303L1041 1566L1042 1566L1042 1380L1042 1327L1041 1303z"/>
<path style="fill:#c3cce0; stroke:none;" d="M3125 1309L3125 2858L3126 2858L3126 1757L3126 1440L3126 1349C3126 1337.58 3129.41 1319.5 3125 1309z"/>
<path style="fill:#94a8d1; stroke:none;" d="M2161 1456L2161 1457L2166 1457L2161 1456z"/>
<path style="fill:#a3b4d9; stroke:none;" d="M2166 1456L2166 1457L2382 1457L2362 1456L2318 1456L2166 1456z"/>
<path style="fill:#94a8d1; stroke:none;" d="M2148 1457L2148 1458L2151 1458L2148 1457z"/>
<path style="fill:#a3b4d9; stroke:none;" d="M2151.67 1457.33L2152.33 1457.67L2151.67 1457.33z"/>
<path style="fill:#c3cce0; stroke:none;" d="M2153 1457L2153 1458L2156 1458L2153 1457z"/>
<path style="fill:#f7f7f7; stroke:none;" d="M1930 1836L1785 1836L1785 2083L1930 2083L1930 2710L2192 2710L2192 2242L2192 2125L2192 2096L2193.6 2084.6L2207 2083L2242 2083L2382 2083L2382 1836L2245 1836L2209 1836C2204.94 1836 2197.85 1837.33 2194.32 1834.97C2188.73 1831.25 2192 1810.2 2192 1804C2192 1771.23 2188.75 1738.05 2218 1715.9C2235.81 1702.41 2256.91 1704 2278 1704L2382 1704L2382 1457L2238 1457C2207.64 1457 2176.16 1454.67 2146 1458.29C2091.73 1464.8 2041.3 1489.08 2002.09 1527.17C1987.7 1541.15 1975.32 1557.84 1965 1575C1952.01 1596.61 1942.29 1620.41 1936.65 1645C1922.67 1706.01 1930 1773.74 1930 1836z"/>
<path style="fill:#94a8d1; stroke:none;" d="M2382 1457L2382 1704L2383 1704L2383 1530L2383 1480L2382 1457M2140.67 1458.33L2141.33 1458.67L2140.67 1458.33z"/>
<path style="fill:#a3b4d9; stroke:none;" d="M2142.67 1458.33L2143.33 1458.67L2142.67 1458.33z"/>
<path style="fill:#c3cce0; stroke:none;" d="M2144 1458L2145 1459L2144 1458z"/>
<path style="fill:#94a8d1; stroke:none;" d="M2134 1459L2135 1460L2134 1459z"/>
<path style="fill:#a3b4d9; stroke:none;" d="M2135.67 1459.33L2136.33 1459.67L2135.67 1459.33z"/>
<path style="fill:#c3cce0; stroke:none;" d="M2137 1459L2138 1460L2137 1459z"/>
<path style="fill:#94a8d1; stroke:none;" d="M2128.67 1460.33L2129.33 1460.67L2128.67 1460.33z"/>
<path style="fill:#a3b4d9; stroke:none;" d="M2130 1460L2131 1461L2130 1460z"/>
<path style="fill:#c3cce0; stroke:none;" d="M2131 1460L2132 1461L2131 1460z"/>
<path style="fill:#94a8d1; stroke:none;" d="M2123.67 1461.33L2124.33 1461.67L2123.67 1461.33z"/>
<path style="fill:#c3cce0; stroke:none;" d="M2125 1461L2126 1462L2125 1461z"/>
<path style="fill:#94a8d1; stroke:none;" d="M2119 1462L2120 1463L2119 1462z"/>
<path style="fill:#a3b4d9; stroke:none;" d="M2120 1462L2121 1463L2120 1462z"/>
<path style="fill:#c3cce0; stroke:none;" d="M2121 1462L2122 1463L2121 1462z"/>
<path style="fill:#94a8d1; stroke:none;" d="M2115 1463L2116 1464L2115 1463z"/>
<path style="fill:#c3cce0; stroke:none;" d="M2116 1463L2117 1464L2116 1463z"/>
<path style="fill:#94a8d1; stroke:none;" d="M2111 1464L2112 1465L2111 1464z"/>
<path style="fill:#c3cce0; stroke:none;" d="M2112 1464L2113 1465L2112 1464z"/>
<path style="fill:#94a8d1; stroke:none;" d="M2107 1465L2108 1466L2107 1465z"/>
<path style="fill:#a3b4d9; stroke:none;" d="M2108 1465L2109 1466L2108 1465z"/>
<path style="fill:#94a8d1; stroke:none;" d="M2104 1466L2105 1467L2104 1466z"/>
<path style="fill:#c3cce0; stroke:none;" d="M2105 1466L2106 1467L2105 1466z"/>
<path style="fill:#94a8d1; stroke:none;" d="M2101 1467L2102 1468L2101 1467z"/>
<path style="fill:#c3cce0; stroke:none;" d="M2102 1467L2103 1468L2102 1467z"/>
<path style="fill:#a3b4d9; stroke:none;" d="M2098 1468L2099 1469L2098 1468M2095 1469L2096 1470L2095 1469z"/>
<path style="fill:#94a8d1; stroke:none;" d="M2092 1470L2093 1471L2092 1470M2089 1471L2090 1472L2089 1471z"/>
<path style="fill:#c3cce0; stroke:none;" d="M2090 1471L2091 1472L2090 1471z"/>
<path style="fill:#94a8d1; stroke:none;" d="M2086 1472L2087 1473L2086 1472z"/>
<path style="fill:#c3cce0; stroke:none;" d="M2087 1472L2088 1473L2087 1472z"/>
<path style="fill:#94a8d1; stroke:none;" d="M2084 1473L2085 1474L2084 1473M2081 1474L2082 1475L2081 1474z"/>
<path style="fill:#c3cce0; stroke:none;" d="M2082 1474L2083 1475L2082 1474z"/>
<path style="fill:#94a8d1; stroke:none;" d="M2079 1475L2080 1476L2079 1475z"/>
<path style="fill:#a3b4d9; stroke:none;" d="M2077 1476L2078 1477L2077 1476z"/>
<path style="fill:#94a8d1; stroke:none;" d="M2074 1477L2075 1478L2074 1477z"/>
<path style="fill:#c3cce0; stroke:none;" d="M2075 1477L2076 1478L2075 1477z"/>
<path style="fill:#94a8d1; stroke:none;" d="M2072 1478L2073 1479L2072 1478z"/>
<path style="fill:#c3cce0; stroke:none;" d="M2073 1478L2074 1479L2073 1478z"/>
<path style="fill:#94a8d1; stroke:none;" d="M2070 1479L2071 1480L2070 1479M2068 1480L2069 1481L2068 1480z"/>
<path style="fill:#a3b4d9; stroke:none;" d="M2066 1481L2067 1482L2066 1481M2064 1482L2065 1483L2064 1482M2062 1483L2063 1484L2062 1483z"/>
<path style="fill:#94a8d1; stroke:none;" d="M2060 1484L2061 1485L2060 1484M2058 1485L2059 1486L2058 1485M2056 1486L2057 1487L2056 1486z"/>
<path style="fill:#c3cce0; stroke:none;" d="M2057 1486L2058 1487L2057 1486M2055 1487L2056 1488L2055 1487z"/>
<path style="fill:#a3b4d9; stroke:none;" d="M2053 1488L2054 1489L2053 1488z"/>
<path style="fill:#94a8d1; stroke:none;" d="M2051 1489L2052 1490L2051 1489M2049 1490L2050 1491L2049 1490z"/>
<path style="fill:#c3cce0; stroke:none;" d="M2048 1491L2049 1492L2048 1491z"/>
<path style="fill:#94a8d1; stroke:none;" d="M2046 1492L2047 1493L2046 1492z"/>
<path style="fill:#c3cce0; stroke:none;" d="M2045 1493L2046 1494L2045 1493z"/>
<path style="fill:#a3b4d9; stroke:none;" d="M2043 1494L2044 1495L2043 1494z"/>
<path style="fill:#94a8d1; stroke:none;" d="M2041 1495L2042 1496L2041 1495z"/>
<path style="fill:#a3b4d9; stroke:none;" d="M2040 1496L2041 1497L2040 1496z"/>
<path style="fill:#94a8d1; stroke:none;" d="M2038 1497L2039 1498L2038 1497z"/>
<path style="fill:#a3b4d9; stroke:none;" d="M2037 1498L2038 1499L2037 1498z"/>
<path style="fill:#94a8d1; stroke:none;" d="M2035 1499L2036 1500L2035 1499z"/>
<path style="fill:#a3b4d9; stroke:none;" d="M2034 1500L2035 1501L2034 1500z"/>
<path style="fill:#94a8d1; stroke:none;" d="M2031 1502L2032 1503L2031 1502z"/>
<path style="fill:#c3cce0; stroke:none;" d="M2030 1503L2031 1504L2030 1503z"/>
<path style="fill:#94a8d1; stroke:none;" d="M2027 1505L2028 1506L2027 1505z"/>
<path style="fill:#c3cce0; stroke:none;" d="M2026 1506L2027 1507L2026 1506z"/>
<path style="fill:#94a8d1; stroke:none;" d="M2023 1508L2024 1509L2023 1508z"/>
<path style="fill:#a3b4d9; stroke:none;" d="M2022 1509L2023 1510L2022 1509z"/>
<path style="fill:#c3cce0; stroke:none;" d="M2021 1510L2022 1511L2021 1510z"/>
<path style="fill:#94a8d1; stroke:none;" d="M2018 1512L2019 1513L2018 1512M2017 1513L2018 1514L2017 1513z"/>
<path style="fill:#c3cce0; stroke:none;" d="M2016 1514L2017 1515L2016 1514z"/>
<path style="fill:#94a8d1; stroke:none;" d="M2011 1518L2012 1519L2011 1518M2010 1519L2011 1520L2010 1519M2009 1520L2010 1521L2009 1520z"/>
<path style="fill:#c3cce0; stroke:none;" d="M2008 1521L2009 1522L2008 1521M2007 1522L2008 1523L2007 1522M2006 1523L2007 1524L2006 1523M2005 1524L2006 1525L2005 1524M1998 1531L1999 1532L1998 1531M1997 1532L1998 1533L1997 1532M1996 1533L1997 1534L1996 1533M1995 1534L1996 1535L1995 1534z"/>
<path style="fill:#a3b4d9; stroke:none;" d="M1994 1535L1995 1536L1994 1535z"/>
<path style="fill:#94a8d1; stroke:none;" d="M1993 1536L1994 1537L1993 1536M1992 1537L1993 1538L1992 1537z"/>
<path style="fill:#c3cce0; stroke:none;" d="M1988 1542L1989 1543L1988 1542z"/>
<path style="fill:#a3b4d9; stroke:none;" d="M1987 1543L1988 1544L1987 1543z"/>
<path style="fill:#94a8d1; stroke:none;" d="M1986 1544L1987 1545L1986 1544z"/>
<path style="fill:#c3cce0; stroke:none;" d="M1983 1548L1984 1549L1983 1548z"/>
<path style="fill:#94a8d1; stroke:none;" d="M1982 1549L1983 1550L1982 1549z"/>
<path style="fill:#c3cce0; stroke:none;" d="M1980 1552L1981 1553L1980 1552z"/>
<path style="fill:#a3b4d9; stroke:none;" d="M1979 1553L1980 1554L1979 1553z"/>
<path style="fill:#94a8d1; stroke:none;" d="M1978 1554L1979 1555L1978 1554z"/>
<path style="fill:#c3cce0; stroke:none;" d="M1977 1556L1978 1557L1977 1556z"/>
<path style="fill:#a3b4d9; stroke:none;" d="M1976 1557L1977 1558L1976 1557z"/>
<path style="fill:#c3cce0; stroke:none;" d="M1974 1560L1975 1561L1974 1560z"/>
<path style="fill:#94a8d1; stroke:none;" d="M1973 1561L1974 1562L1973 1561z"/>
<path style="fill:#c3cce0; stroke:none;" d="M1972 1563L1973 1564L1972 1563z"/>
<path style="fill:#94a8d1; stroke:none;" d="M1971 1564L1972 1565L1971 1564M1041 1566L1042 1567L1041 1566z"/>
<path style="fill:#c3cce0; stroke:none;" d="M1970 1566L1971 1567L1970 1566z"/>
<path style="fill:#a3b4d9; stroke:none;" d="M1041 1567L1041 1821L1042 1821L1042 1642L1042 1590L1041 1567z"/>
<path style="fill:#94a8d1; stroke:none;" d="M1969 1567L1970 1568L1969 1567z"/>
<path style="fill:#c3cce0; stroke:none;" d="M1968 1569L1969 1570L1968 1569z"/>
<path style="fill:#94a8d1; stroke:none;" d="M1967 1570L1968 1571L1967 1570z"/>
<path style="fill:#a3b4d9; stroke:none;" d="M1966 1572L1967 1573L1966 1572z"/>
<path style="fill:#c3cce0; stroke:none;" d="M1965 1574L1966 1575L1965 1574z"/>
<path style="fill:#94a8d1; stroke:none;" d="M1964 1575L1965 1576L1964 1575z"/>
<path style="fill:#a3b4d9; stroke:none;" d="M1963 1577L1964 1578L1963 1577z"/>
<path style="fill:#c3cce0; stroke:none;" d="M1962 1579L1963 1580L1962 1579z"/>
<path style="fill:#94a8d1; stroke:none;" d="M1961 1580L1962 1581L1961 1580M1960 1582L1961 1583L1960 1582z"/>
<path style="fill:#a3b4d9; stroke:none;" d="M1959 1584L1960 1585L1959 1584M1958 1586L1959 1587L1958 1586z"/>
<path style="fill:#c3cce0; stroke:none;" d="M1957 1588L1958 1589L1957 1588M1956 1590L1957 1591L1956 1590M1955 1592L1956 1593L1955 1592M1954 1594L1955 1595L1954 1594M1953 1596L1954 1597L1953 1596z"/>
<path style="fill:#a3b4d9; stroke:none;" d="M1952 1598L1953 1599L1952 1598z"/>
<path style="fill:#94a8d1; stroke:none;" d="M1951 1600L1952 1601L1951 1600M1950 1602L1951 1603L1950 1602z"/>
<path style="fill:#c3cce0; stroke:none;" d="M1950 1603L1951 1604L1950 1603M1949 1605L1950 1606L1949 1605z"/>
<path style="fill:#94a8d1; stroke:none;" d="M1948 1607L1949 1608L1948 1607M1947 1609L1948 1610L1947 1609z"/>
<path style="fill:#c3cce0; stroke:none;" d="M1947 1610L1948 1611L1947 1610z"/>
<path style="fill:#94a8d1; stroke:none;" d="M1946 1612L1947 1613L1946 1612z"/>
<path style="fill:#c3cce0; stroke:none;" d="M1945 1615L1946 1616L1945 1615z"/>
<path style="fill:#94a8d1; stroke:none;" d="M1944 1617L1945 1618L1944 1617z"/>
<path style="fill:#c3cce0; stroke:none;" d="M1944 1618L1945 1619L1944 1618z"/>
<path style="fill:#94a8d1; stroke:none;" d="M1943 1620L1944 1621L1943 1620z"/>
<path style="fill:#c3cce0; stroke:none;" d="M1943 1621L1944 1622L1943 1621z"/>
<path style="fill:#94a8d1; stroke:none;" d="M1942 1623L1943 1624L1942 1623z"/>
<path style="fill:#c3cce0; stroke:none;" d="M1942 1624L1943 1625L1942 1624z"/>
<path style="fill:#94a8d1; stroke:none;" d="M1941 1626L1942 1627L1941 1626z"/>
<path style="fill:#c3cce0; stroke:none;" d="M1941 1627L1942 1628L1941 1627z"/>
<path style="fill:#94a8d1; stroke:none;" d="M1940 1629L1941 1630L1940 1629z"/>
<path style="fill:#c3cce0; stroke:none;" d="M1940 1630L1941 1631L1940 1630z"/>
<path style="fill:#a3b4d9; stroke:none;" d="M1939 1633L1940 1634L1939 1633z"/>
<path style="fill:#94a8d1; stroke:none;" d="M1938 1636L1939 1637L1938 1636z"/>
<path style="fill:#c3cce0; stroke:none;" d="M1938 1637L1939 1638L1938 1637z"/>
<path style="fill:#94a8d1; stroke:none;" d="M1937 1640L1938 1641L1937 1640z"/>
<path style="fill:#c3cce0; stroke:none;" d="M1937 1641L1938 1642L1937 1641z"/>
<path style="fill:#94a8d1; stroke:none;" d="M1936 1644L1937 1645L1936 1644z"/>
<path style="fill:#c3cce0; stroke:none;" d="M1936 1645L1937 1646L1936 1645z"/>
<path style="fill:#94a8d1; stroke:none;" d="M1935 1648L1936 1649L1935 1648z"/>
<path style="fill:#a3b4d9; stroke:none;" d="M1935 1649L1936 1650L1935 1649z"/>
<path style="fill:#c3cce0; stroke:none;" d="M1935 1650L1936 1651L1935 1650z"/>
<path style="fill:#94a8d1; stroke:none;" d="M1934 1653L1935 1654L1934 1653z"/>
<path style="fill:#a3b4d9; stroke:none;" d="M1934 1654L1935 1655L1934 1654z"/>
<path style="fill:#c3cce0; stroke:none;" d="M1934 1655L1935 1656L1934 1655z"/>
<path style="fill:#94a8d1; stroke:none;" d="M1933.33 1658.67L1933.67 1659.33L1933.33 1658.67z"/>
<path style="fill:#a3b4d9; stroke:none;" d="M1933 1660L1934 1661L1933 1660z"/>
<path style="fill:#c3cce0; stroke:none;" d="M1933 1661L1934 1662L1933 1661z"/>
<path style="fill:#94a8d1; stroke:none;" d="M1932.33 1664.67L1932.67 1665.33L1932.33 1664.67z"/>
<path style="fill:#a3b4d9; stroke:none;" d="M1932 1666L1933 1667L1932 1666z"/>
<path style="fill:#c3cce0; stroke:none;" d="M1932.33 1667.67L1932.67 1668.33L1932.33 1667.67z"/>
<path style="fill:#94a8d1; stroke:none;" d="M1931.33 1672.67L1931.67 1673.33L1931.33 1672.67z"/>
<path style="fill:#a3b4d9; stroke:none;" d="M1931.33 1674.67L1931.67 1675.33L1931.33 1674.67z"/>
<path style="fill:#c3cce0; stroke:none;" d="M1931.33 1676.67L1931.67 1677.33L1931.33 1676.67z"/>
<path style="fill:#94a8d1; stroke:none;" d="M1930 1682L1930 1685L1931 1685L1930 1682z"/>
<path style="fill:#a3b4d9; stroke:none;" d="M1930 1685L1930 1689L1931 1689L1930 1685z"/>
<path style="fill:#c3cce0; stroke:none;" d="M1930 1689L1930 1697L1931 1697L1930 1689M2246.67 1704.33L2247.33 1704.67L2246.67 1704.33z"/>
<path style="fill:#a3b4d9; stroke:none;" d="M2248 1704L2248 1705L2382 1705C2371.5 1700.59 2353.42 1704 2342 1704L2248 1704z"/>
<path style="fill:#c3cce0; stroke:none;" d="M2240 1705L2241 1706L2240 1705z"/>
<path style="fill:#a3b4d9; stroke:none;" d="M2241 1705L2242 1706L2241 1705z"/>
<path style="fill:#94a8d1; stroke:none;" d="M2242.67 1705.33L2243.33 1705.67L2242.67 1705.33z"/>
<path style="fill:#c3cce0; stroke:none;" d="M2236 1706L2237 1707L2236 1706z"/>
<path style="fill:#a3b4d9; stroke:none;" d="M2237 1706L2238 1707L2237 1706z"/>
<path style="fill:#94a8d1; stroke:none;" d="M2238 1706L2239 1707L2238 1706z"/>
<path style="fill:#c3cce0; stroke:none;" d="M2233 1707L2234 1708L2233 1707z"/>
<path style="fill:#94a8d1; stroke:none;" d="M2234 1707L2235 1708L2234 1707M2231 1708L2232 1709L2231 1708z"/>
<path style="fill:#c3cce0; stroke:none;" d="M2228 1709L2229 1710L2228 1709z"/>
<path style="fill:#94a8d1; stroke:none;" d="M2229 1709L2230 1710L2229 1709z"/>
<path style="fill:#c3cce0; stroke:none;" d="M2226 1710L2227 1711L2226 1710M2224 1711L2225 1712L2224 1711M2222 1712L2223 1713L2222 1712z"/>
<path style="fill:#94a8d1; stroke:none;" d="M2223 1712L2224 1713L2223 1712M2221 1713L2222 1714L2221 1713z"/>
<path style="fill:#c3cce0; stroke:none;" d="M2219 1714L2220 1715L2219 1714z"/>
<path style="fill:#94a8d1; stroke:none;" d="M2218 1715L2219 1716L2218 1715z"/>
<path style="fill:#c3cce0; stroke:none;" d="M2215 1717L2216 1718L2215 1717z"/>
<path style="fill:#94a8d1; stroke:none;" d="M2214 1718L2215 1719L2214 1718M2213 1719L2214 1720L2213 1719M2207 1725L2208 1726L2207 1725M2206 1726L2207 1727L2206 1726z"/>
<path style="fill:#c3cce0; stroke:none;" d="M2205 1727L2206 1728L2205 1727z"/>
<path style="fill:#94a8d1; stroke:none;" d="M2203 1730L2204 1731L2203 1730z"/>
<path style="fill:#c3cce0; stroke:none;" d="M2202 1731L2203 1732L2202 1731z"/>
<path style="fill:#a3b4d9; stroke:none;" d="M2201 1733L2202 1734L2201 1733z"/>
<path style="fill:#94a8d1; stroke:none;" d="M2200 1735L2201 1736L2200 1735z"/>
<path style="fill:#c3cce0; stroke:none;" d="M2199 1736L2200 1737L2199 1736z"/>
<path style="fill:#94a8d1; stroke:none;" d="M2199 1737L2200 1738L2199 1737z"/>
<path style="fill:#c3cce0; stroke:none;" d="M2198 1738L2199 1739L2198 1738z"/>
<path style="fill:#94a8d1; stroke:none;" d="M2198 1739L2199 1740L2198 1739M2197 1741L2198 1742L2197 1741z"/>
<path style="fill:#c3cce0; stroke:none;" d="M2196 1743L2197 1744L2196 1743z"/>
<path style="fill:#94a8d1; stroke:none;" d="M2196 1744L2197 1745L2196 1744z"/>
<path style="fill:#a3b4d9; stroke:none;" d="M2195 1746L2196 1747L2195 1746z"/>
<path style="fill:#94a8d1; stroke:none;" d="M2195 1747L2196 1748L2195 1747z"/>
<path style="fill:#c3cce0; stroke:none;" d="M2194 1749L2195 1750L2194 1749z"/>
<path style="fill:#94a8d1; stroke:none;" d="M2194.33 1750.67L2194.67 1751.33L2194.33 1750.67z"/>
<path style="fill:#c3cce0; stroke:none;" d="M2193 1754L2194 1755L2193 1754z"/>
<path style="fill:#a3b4d9; stroke:none;" d="M2193 1755L2194 1756L2193 1755z"/>
<path style="fill:#94a8d1; stroke:none;" d="M2193.33 1756.67L2193.67 1757.33L2193.33 1756.67z"/>
<path style="fill:#c3cce0; stroke:none;" d="M2192 1761L2192 1835L2193 1835L2193 1784L2192 1761z"/>
<path style="fill:#94a8d1; stroke:none;" d="M1041 1821L1042 1822L1041 1821z"/>
<path style="fill:#a3b4d9; stroke:none;" d="M1041 1822L1041 2084L1042 2084L1042 1899L1042 1846L1041 1822z"/>
<path style="fill:#94a8d1; stroke:none;" d="M1784 1835L1785 1836L1784 1835z"/>
<path style="fill:#c3cce0; stroke:none;" d="M1785 1835L1785 1836L1930 1836C1918.54 1831.19 1898.47 1835 1886 1835L1785 1835M2193 1835L2193 1836L2382 1836L2364 1835L2326 1835L2193 1835z"/>
<path style="fill:#a3b4d9; stroke:none;" d="M1784 1836L1784 2022L1784 2067L1785.6 2082.97L1796 2084L1824 2084L1930 2084L1930 2083L1785 2083L1785 1909L1785 1859L1784 1836z"/>
<path style="fill:#94a8d1; stroke:none;" d="M2382 1836L2382 2083L2383 2083L2383 1909L2383 1859L2382 1836M1784 2083L1785 2084L1784 2083z"/>
<path style="fill:#a3b4d9; stroke:none;" d="M2193 2083L2193 2084L2382 2084L2364 2083L2326 2083L2193 2083z"/>
<path style="fill:#94a8d1; stroke:none;" d="M1041 2084L1042 2085L1041 2084z"/>
<path style="fill:#c3cce0; stroke:none;" d="M2192 2084L2192 2710L2193 2710L2193 2266L2193 2138L2193 2102L2192 2084z"/>
<path style="fill:#a3b4d9; stroke:none;" d="M1041.33 2085.67L1041.67 2086.33L1041.33 2085.67z"/>
<path style="fill:#94a8d1; stroke:none;" d="M1041 2087L1042 2088L1041 2087z"/>
<path style="fill:#a3b4d9; stroke:none;" d="M1041 2088L1041 2857L1042 2857L1042 2312L1042 2154L1042 2109L1041 2088z"/>
<path style="fill:#94a8d1; stroke:none;" d="M1930 2710L1930 2711L2192 2711L2168 2710L2115 2710L1930 2710M1041 2857L1042 2858L1041 2857z"/>
<path style="fill:#a3b4d9; stroke:none;" d="M1041 2858L1041 2861L1042 2861L1041 2858z"/>
<path style="fill:#94a8d1; stroke:none;" d="M1041.33 2861.67L1041.67 2862.33L1041.33 2861.67z"/>
<path style="fill:#a3b4d9; stroke:none;" d="M1041 2863L1042 2864L1041 2863z"/>
<path style="fill:#c3cce0; stroke:none;" d="M1041 2864L1041 2870L1042 2870L1041 2864z"/>
<path style="fill:#94a8d1; stroke:none;" d="M3124 2869L3124 2877L3125 2877L3124 2869M1042 2875L1042 2878L1043 2878L1042 2875z"/>
<path style="fill:#c3cce0; stroke:none;" d="M3124 2877L3124 2880L3125 2880L3124 2877z"/>
<path style="fill:#a3b4d9; stroke:none;" d="M1042 2878L1042 2881L1043 2881L1042 2878z"/>
<path style="fill:#c3cce0; stroke:none;" d="M1042.33 2881.67L1042.67 2882.33L1042.33 2881.67z"/>
<path style="fill:#94a8d1; stroke:none;" d="M3123 2883L3123 2887L3124 2887L3123 2883M1043 2886L1043 2889L1044 2889L1043 2886z"/>
<path style="fill:#a3b4d9; stroke:none;" d="M3123 2887L3124 2888L3123 2887z"/>
<path style="fill:#c3cce0; stroke:none;" d="M3123.33 2888.67L3123.67 2889.33L3123.33 2888.67z"/>
<path style="fill:#a3b4d9; stroke:none;" d="M1043 2889L1044 2890L1043 2889z"/>
<path style="fill:#c3cce0; stroke:none;" d="M1043.33 2890.67L1043.67 2891.33L1043.33 2890.67z"/>
<path style="fill:#94a8d1; stroke:none;" d="M3122 2892L3122 2895L3123 2895L3122 2892M1044 2895L1045 2896L1044 2895z"/>
<path style="fill:#a3b4d9; stroke:none;" d="M3122 2895L3123 2896L3122 2895M1044 2896L1045 2897L1044 2896z"/>
<path style="fill:#c3cce0; stroke:none;" d="M3122 2896L3123 2897L3122 2896M1044.33 2897.67L1044.67 2898.33L1044.33 2897.67z"/>
<path style="fill:#94a8d1; stroke:none;" d="M3121.33 2899.67L3121.67 2900.33L3121.33 2899.67M1045.33 2901.67L1045.67 2902.33L1045.33 2901.67z"/>
<path style="fill:#a3b4d9; stroke:none;" d="M3121 2901L3122 2902L3121 2901z"/>
<path style="fill:#c3cce0; stroke:none;" d="M3121 2902L3122 2903L3121 2902z"/>
<path style="fill:#a3b4d9; stroke:none;" d="M1045 2903L1046 2904L1045 2903z"/>
<path style="fill:#c3cce0; stroke:none;" d="M1045 2904L1046 2905L1045 2904z"/>
<path style="fill:#94a8d1; stroke:none;" d="M3120.33 2905.67L3120.67 2906.33L3120.33 2905.67M1046 2907L1047 2908L1046 2907z"/>
<path style="fill:#c3cce0; stroke:none;" d="M3120.33 2907.67L3120.67 2908.33L3120.33 2907.67z"/>
<path style="fill:#a3b4d9; stroke:none;" d="M1046 2908L1047 2909L1046 2908z"/>
<path style="fill:#c3cce0; stroke:none;" d="M1046 2909L1047 2910L1046 2909z"/>
<path style="fill:#94a8d1; stroke:none;" d="M3119.33 2910.67L3119.67 2911.33L3119.33 2910.67M1047 2912L1048 2913L1047 2912z"/>
<path style="fill:#c3cce0; stroke:none;" d="M3119.33 2912.67L3119.67 2913.33L3119.33 2912.67z"/>
<path style="fill:#a3b4d9; stroke:none;" d="M1047 2913L1048 2914L1047 2913z"/>
<path style="fill:#c3cce0; stroke:none;" d="M1047 2914L1048 2915L1047 2914z"/>
<path style="fill:#94a8d1; stroke:none;" d="M3118.33 2915.67L3118.67 2916.33L3118.33 2915.67M1048 2917L1049 2918L1048 2917z"/>
<path style="fill:#c3cce0; stroke:none;" d="M3118 2917L3119 2918L3118 2917M1048 2918L1049 2919L1048 2918z"/>
<path style="fill:#94a8d1; stroke:none;" d="M3117.33 2919.67L3117.67 2920.33L3117.33 2919.67M1049 2921L1050 2922L1049 2921z"/>
<path style="fill:#c3cce0; stroke:none;" d="M3117 2921L3118 2922L3117 2921M1049 2922L1050 2923L1049 2922z"/>
<path style="fill:#94a8d1; stroke:none;" d="M3116.33 2923.67L3116.67 2924.33L3116.33 2923.67M1050 2925L1051 2926L1050 2925z"/>
<path style="fill:#c3cce0; stroke:none;" d="M3116 2925L3117 2926L3116 2925M1050 2926L1051 2927L1050 2926z"/>
<path style="fill:#94a8d1; stroke:none;" d="M3115 2927L3116 2928L3115 2927z"/>
<path style="fill:#a3b4d9; stroke:none;" d="M3115 2928L3116 2929L3115 2928M1051 2929L1052 2930L1051 2929z"/>
<path style="fill:#c3cce0; stroke:none;" d="M3115 2929L3116 2930L3115 2929M1051 2930L1052 2931L1051 2930z"/>
<path style="fill:#94a8d1; stroke:none;" d="M3114 2931L3115 2932L3114 2931M1052 2932L1053 2933L1052 2932z"/>
<path style="fill:#c3cce0; stroke:none;" d="M3114 2932L3115 2933L3114 2932M1052 2933L1053 2934L1052 2933z"/>
<path style="fill:#94a8d1; stroke:none;" d="M3113 2934L3114 2935L3113 2934M1053 2935L1054 2936L1053 2935z"/>
<path style="fill:#a3b4d9; stroke:none;" d="M3113 2935L3114 2936L3113 2935M1053 2936L1054 2937L1053 2936z"/>
<path style="fill:#c3cce0; stroke:none;" d="M3113 2936L3114 2937L3113 2936z"/>
<path style="fill:#a3b4d9; stroke:none;" d="M3112 2938L3113 2939L3112 2938M1054 2939L1055 2940L1054 2939z"/>
<path style="fill:#c3cce0; stroke:none;" d="M3112 2939L3113 2940L3112 2939z"/>
<path style="fill:#a3b4d9; stroke:none;" d="M3111 2941L3112 2942L3111 2941M1055 2942L1056 2943L1055 2942z"/>
<path style="fill:#c3cce0; stroke:none;" d="M3111 2942L3112 2943L3111 2942z"/>
<path style="fill:#a3b4d9; stroke:none;" d="M3110 2944L3111 2945L3110 2944M1056 2945L1057 2946L1056 2945z"/>
<path style="fill:#c3cce0; stroke:none;" d="M3110 2945L3111 2946L3110 2945z"/>
<path style="fill:#94a8d1; stroke:none;" d="M1057 2947L1058 2948L1057 2947z"/>
<path style="fill:#a3b4d9; stroke:none;" d="M3109 2947L3110 2948L3109 2947z"/>
<path style="fill:#c3cce0; stroke:none;" d="M1057 2948L1058 2949L1057 2948z"/>
<path style="fill:#94a8d1; stroke:none;" d="M3108 2949L3109 2950L3108 2949M1058 2950L1059 2951L1058 2950z"/>
<path style="fill:#c3cce0; stroke:none;" d="M3108 2950L3109 2951L3108 2950M1058 2951L1059 2952L1058 2951z"/>
<path style="fill:#94a8d1; stroke:none;" d="M3107 2952L3108 2953L3107 2952z"/>
<path style="fill:#a3b4d9; stroke:none;" d="M1059 2953L1060 2954L1059 2953z"/>
<path style="fill:#c3cce0; stroke:none;" d="M3107 2953L3108 2954L3107 2953z"/>
<path style="fill:#94a8d1; stroke:none;" d="M1060 2955L1061 2956L1060 2955z"/>
<path style="fill:#a3b4d9; stroke:none;" d="M3106 2955L3107 2956L3106 2955z"/>
<path style="fill:#c3cce0; stroke:none;" d="M1060 2956L1061 2957L1060 2956z"/>
<path style="fill:#94a8d1; stroke:none;" d="M3105 2957L3106 2958L3105 2957z"/>
<path style="fill:#a3b4d9; stroke:none;" d="M1061 2958L1062 2959L1061 2958z"/>
<path style="fill:#c3cce0; stroke:none;" d="M3105 2958L3106 2959L3105 2958z"/>
<path style="fill:#94a8d1; stroke:none;" d="M3104 2959L3105 2960L3104 2959M1062 2960L1063 2961L1062 2960z"/>
<path style="fill:#a3b4d9; stroke:none;" d="M3104 2960L3105 2961L3104 2960z"/>
<path style="fill:#c3cce0; stroke:none;" d="M1062 2961L1063 2962L1062 2961z"/>
<path style="fill:#94a8d1; stroke:none;" d="M3103 2962L3104 2963L3103 2962z"/>
<path style="fill:#c3cce0; stroke:none;" d="M1063 2963L1064 2964L1063 2963M3103 2963L3104 2964L3103 2963z"/>
<path style="fill:#94a8d1; stroke:none;" d="M3102 2964L3103 2965L3102 2964z"/>
<path style="fill:#a3b4d9; stroke:none;" d="M1064 2965L1065 2966L1064 2965z"/>
<path style="fill:#c3cce0; stroke:none;" d="M3102 2965L3103 2966L3102 2965z"/>
<path style="fill:#94a8d1; stroke:none;" d="M3101 2966L3102 2967L3101 2966M1065 2967L1066 2968L1065 2967z"/>
<path style="fill:#c3cce0; stroke:none;" d="M3101 2967L3102 2968L3101 2967z"/>
<path style="fill:#94a8d1; stroke:none;" d="M1066 2969L1067 2970L1066 2969z"/>
<path style="fill:#a3b4d9; stroke:none;" d="M3100 2969L3101 2970L3100 2969z"/>
<path style="fill:#c3cce0; stroke:none;" d="M1066 2970L1067 2971L1066 2970z"/>
<path style="fill:#94a8d1; stroke:none;" d="M1067 2971L1068 2972L1067 2971M3099 2971L3100 2972L3099 2971z"/>
<path style="fill:#c3cce0; stroke:none;" d="M1067 2972L1068 2973L1067 2972z"/>
<path style="fill:#94a8d1; stroke:none;" d="M3098 2973L3099 2974L3098 2973z"/>
<path style="fill:#c3cce0; stroke:none;" d="M1068 2974L1069 2975L1068 2974z"/>
<path style="fill:#94a8d1; stroke:none;" d="M3097 2975L3098 2976L3097 2975z"/>
<path style="fill:#c3cce0; stroke:none;" d="M1069 2976L1070 2977L1069 2976z"/>
<path style="fill:#94a8d1; stroke:none;" d="M3096 2977L3097 2978L3096 2977z"/>
<path style="fill:#c3cce0; stroke:none;" d="M1070 2978L1071 2979L1070 2978z"/>
<path style="fill:#94a8d1; stroke:none;" d="M3095 2979L3096 2980L3095 2979z"/>
<path style="fill:#c3cce0; stroke:none;" d="M1071 2980L1072 2981L1071 2980z"/>
<path style="fill:#94a8d1; stroke:none;" d="M1072 2981L1073 2982L1072 2981M3094 2981L3095 2982L3094 2981z"/>
<path style="fill:#c3cce0; stroke:none;" d="M1072 2982L1073 2983L1072 2982z"/>
<path style="fill:#94a8d1; stroke:none;" d="M1073 2983L1074 2984L1073 2983z"/>
<path style="fill:#a3b4d9; stroke:none;" d="M3093 2983L3094 2984L3093 2983z"/>
<path style="fill:#94a8d1; stroke:none;" d="M1074 2985L1075 2986L1074 2985z"/>
<path style="fill:#c3cce0; stroke:none;" d="M3092 2985L3093 2986L3092 2985z"/>
<path style="fill:#94a8d1; stroke:none;" d="M3091 2986L3092 2987L3091 2986z"/>
<path style="fill:#a3b4d9; stroke:none;" d="M1075 2987L1076 2988L1075 2987z"/>
<path style="fill:#c3cce0; stroke:none;" d="M3091 2987L3092 2988L3091 2987z"/>
<path style="fill:#94a8d1; stroke:none;" d="M3090 2988L3091 2989L3090 2988z"/>
<path style="fill:#c3cce0; stroke:none;" d="M1076 2989L1077 2990L1076 2989M3090 2989L3091 2990L3090 2989z"/>
<path style="fill:#94a8d1; stroke:none;" d="M3089 2990L3090 2991L3089 2990z"/>
<path style="fill:#c3cce0; stroke:none;" d="M1077 2991L1078 2992L1077 2991z"/>
<path style="fill:#94a8d1; stroke:none;" d="M1078 2992L1079 2993L1078 2992z"/>
<path style="fill:#c3cce0; stroke:none;" d="M3088 2992L3089 2993L3088 2992z"/>
<path style="fill:#94a8d1; stroke:none;" d="M3087 2993L3088 2994L3087 2993z"/>
<path style="fill:#a3b4d9; stroke:none;" d="M1079 2994L1080 2995L1079 2994z"/>
<path style="fill:#c3cce0; stroke:none;" d="M3087 2994L3088 2995L3087 2994z"/>
<path style="fill:#94a8d1; stroke:none;" d="M3086 2995L3087 2996L3086 2995z"/>
<path style="fill:#c3cce0; stroke:none;" d="M1080 2996L1081 2997L1080 2996z"/>
<path style="fill:#94a8d1; stroke:none;" d="M1081 2997L1082 2998L1081 2997z"/>
<path style="fill:#c3cce0; stroke:none;" d="M3085 2997L3086 2998L3085 2997z"/>
<path style="fill:#94a8d1; stroke:none;" d="M3084 2998L3085 2999L3084 2998z"/>
<path style="fill:#a3b4d9; stroke:none;" d="M1082 2999L1083 3000L1082 2999z"/>
<path style="fill:#c3cce0; stroke:none;" d="M3084 2999L3085 3000L3084 2999z"/>
<path style="fill:#94a8d1; stroke:none;" d="M1083 3000L1084 3001L1083 3000z"/>
<path style="fill:#a3b4d9; stroke:none;" d="M3083 3000L3084 3001L3083 3000z"/>
<path style="fill:#c3cce0; stroke:none;" d="M1083 3001L1084 3002L1083 3001z"/>
<path style="fill:#a3b4d9; stroke:none;" d="M1084 3002L1085 3003L1084 3002z"/>
<path style="fill:#c3cce0; stroke:none;" d="M3082 3002L3083 3003L3082 3002z"/>
<path style="fill:#94a8d1; stroke:none;" d="M3081 3003L3082 3004L3081 3003z"/>
<path style="fill:#c3cce0; stroke:none;" d="M1085 3004L1086 3005L1085 3004z"/>
<path style="fill:#a3b4d9; stroke:none;" d="M1086 3005L1087 3006L1086 3005z"/>
<path style="fill:#c3cce0; stroke:none;" d="M3080 3005L3081 3006L3080 3005z"/>
<path style="fill:#94a8d1; stroke:none;" d="M3079 3006L3080 3007L3079 3006z"/>
<path style="fill:#c3cce0; stroke:none;" d="M1087 3007L1088 3008L1087 3007z"/>
<path style="fill:#a3b4d9; stroke:none;" d="M1088 3008L1089 3009L1088 3008z"/>
<path style="fill:#c3cce0; stroke:none;" d="M3078 3008L3079 3009L3078 3008z"/>
<path style="fill:#94a8d1; stroke:none;" d="M3077 3009L3078 3010L3077 3009M3076 3010L3077 3011L3076 3010z"/>
<path style="fill:#a3b4d9; stroke:none;" d="M1090 3011L1091 3012L1090 3011z"/>
<path style="fill:#c3cce0; stroke:none;" d="M3076 3011L3077 3012L3076 3011z"/>
<path style="fill:#94a8d1; stroke:none;" d="M1091 3012L1092 3013L1091 3012z"/>
<path style="fill:#a3b4d9; stroke:none;" d="M3075 3012L3076 3013L3075 3012z"/>
<path style="fill:#94a8d1; stroke:none;" d="M3074 3013L3075 3014L3074 3013z"/>
<path style="fill:#c3cce0; stroke:none;" d="M1092 3014L1093 3015L1092 3014z"/>
<path style="fill:#a3b4d9; stroke:none;" d="M1093 3015L1094 3016L1093 3015z"/>
<path style="fill:#c3cce0; stroke:none;" d="M3073 3015L3074 3016L3073 3015z"/>
<path style="fill:#a3b4d9; stroke:none;" d="M3072 3016L3073 3017L3072 3016z"/>
<path style="fill:#94a8d1; stroke:none;" d="M3071 3017L3072 3018L3071 3017z"/>
<path style="fill:#c3cce0; stroke:none;" d="M1095 3018L1096 3019L1095 3018z"/>
<path style="fill:#a3b4d9; stroke:none;" d="M1096 3019L1097 3020L1096 3019z"/>
<path style="fill:#c3cce0; stroke:none;" d="M3070 3019L3071 3020L3070 3019z"/>
<path style="fill:#94a8d1; stroke:none;" d="M1097 3020L1098 3021L1097 3020z"/>
<path style="fill:#a3b4d9; stroke:none;" d="M3069 3020L3070 3021L3069 3020z"/>
<path style="fill:#94a8d1; stroke:none;" d="M3068 3021L3069 3022L3068 3021z"/>
<path style="fill:#c3cce0; stroke:none;" d="M1098 3022L1099 3023L1098 3022M1099 3023L1100 3024L1099 3023M3067 3023L3068 3024L3067 3023z"/>
<path style="fill:#94a8d1; stroke:none;" d="M1100 3024L1101 3025L1100 3024z"/>
<path style="fill:#c3cce0; stroke:none;" d="M3066 3024L3067 3025L3066 3024z"/>
<path style="fill:#94a8d1; stroke:none;" d="M3065 3025L3066 3026L3065 3025M3064 3026L3065 3027L3064 3026z"/>
<path style="fill:#c3cce0; stroke:none;" d="M1103 3028L1104 3029L1103 3028z"/>
<path style="fill:#a3b4d9; stroke:none;" d="M1104 3029L1105 3030L1104 3029z"/>
<path style="fill:#c3cce0; stroke:none;" d="M3062 3029L3063 3030L3062 3029z"/>
<path style="fill:#94a8d1; stroke:none;" d="M1105 3030L1106 3031L1105 3030z"/>
<path style="fill:#a3b4d9; stroke:none;" d="M3061 3030L3062 3031L3061 3030M3060 3031L3061 3032L3060 3031z"/>
<path style="fill:#94a8d1; stroke:none;" d="M3059 3032L3060 3033L3059 3032M3058 3033L3059 3034L3058 3033z"/>
<path style="fill:#c3cce0; stroke:none;" d="M1108 3034L1109 3035L1108 3034M1109 3035L1110 3036L1109 3035M1110 3036L1111 3037L1110 3036M3056 3036L3057 3037L3056 3036z"/>
<path style="fill:#a3b4d9; stroke:none;" d="M1111 3037L1112 3038L1111 3037z"/>
<path style="fill:#c3cce0; stroke:none;" d="M3055 3037L3056 3038L3055 3037z"/>
<path style="fill:#94a8d1; stroke:none;" d="M1112 3038L1113 3039L1112 3038z"/>
<path style="fill:#c3cce0; stroke:none;" d="M3054 3038L3055 3039L3054 3038z"/>
<path style="fill:#94a8d1; stroke:none;" d="M1113 3039L1114 3040L1113 3039z"/>
<path style="fill:#a3b4d9; stroke:none;" d="M3053 3039L3054 3040L3053 3039z"/>
<path style="fill:#94a8d1; stroke:none;" d="M1114 3040L1115 3041L1114 3040z"/>
<path style="fill:#a3b4d9; stroke:none;" d="M3052 3040L3053 3041L3052 3040M3051 3041L3052 3042L3051 3041z"/>
<path style="fill:#94a8d1; stroke:none;" d="M3050 3042L3051 3043L3050 3042M3049 3043L3050 3044L3049 3043M3048 3044L3049 3045L3048 3044M3047 3045L3048 3046L3047 3045M3046 3046L3047 3047L3046 3046M3045 3047L3046 3048L3045 3047M3044 3048L3045 3049L3044 3048M3043 3049L3044 3050L3043 3049z"/>
<path style="fill:#a3b4d9; stroke:none;" d="M3042 3050L3043 3051L3042 3050M3041 3051L3042 3052L3041 3051z"/>
<path style="fill:#94a8d1; stroke:none;" d="M1126 3052L1127 3053L1126 3052z"/>
<path style="fill:#a3b4d9; stroke:none;" d="M3040 3052L3041 3053L3040 3052z"/>
<path style="fill:#94a8d1; stroke:none;" d="M1127 3053L1128 3054L1127 3053z"/>
<path style="fill:#a3b4d9; stroke:none;" d="M3039 3053L3040 3054L3039 3053z"/>
<path style="fill:#94a8d1; stroke:none;" d="M1128 3054L1129 3055L1128 3054z"/>
<path style="fill:#c3cce0; stroke:none;" d="M3038 3054L3039 3055L3038 3054z"/>
<path style="fill:#a3b4d9; stroke:none;" d="M1129 3055L1130 3056L1129 3055z"/>
<path style="fill:#c3cce0; stroke:none;" d="M3037 3055L3038 3056L3037 3055M1130 3056L1131 3057L1130 3056M3036 3056L3037 3057L3036 3056M1131 3057L1132 3058L1131 3057z"/>
<path style="fill:#94a8d1; stroke:none;" d="M3033 3058L3034 3059L3033 3058M3032 3059L3033 3060L3032 3059M1135 3060L1136 3061L1135 3060z"/>
<path style="fill:#a3b4d9; stroke:none;" d="M3031 3060L3032 3061L3031 3060z"/>
<path style="fill:#94a8d1; stroke:none;" d="M1136 3061L1137 3062L1136 3061z"/>
<path style="fill:#a3b4d9; stroke:none;" d="M3030 3061L3031 3062L3030 3061M1137 3062L1138 3063L1137 3062z"/>
<path style="fill:#c3cce0; stroke:none;" d="M3029 3062L3030 3063L3029 3062M1138 3063L1139 3064L1138 3063M1139 3064L1140 3065L1139 3064z"/>
<path style="fill:#94a8d1; stroke:none;" d="M3026 3064L3027 3065L3026 3064M1141 3065L1142 3066L1141 3065M3025 3065L3026 3066L3025 3065M1142 3066L1143 3067L1142 3066z"/>
<path style="fill:#c3cce0; stroke:none;" d="M3024 3066L3025 3067L3024 3066M1143 3067L1144 3068L1143 3067M3023 3067L3024 3068L3023 3067z"/>
<path style="fill:#94a8d1; stroke:none;" d="M3021 3068L3022 3069L3021 3068M1146 3069L1147 3070L1146 3069z"/>
<path style="fill:#a3b4d9; stroke:none;" d="M3020 3069L3021 3070L3020 3069M1147 3070L1148 3071L1147 3070z"/>
<path style="fill:#c3cce0; stroke:none;" d="M3019 3070L3020 3071L3019 3070z"/>
<path style="fill:#94a8d1; stroke:none;" d="M3017 3071L3018 3072L3017 3071M1150 3072L1151 3073L1150 3072z"/>
<path style="fill:#a3b4d9; stroke:none;" d="M3016 3072L3017 3073L3016 3072M1151 3073L1152 3074L1151 3073z"/>
<path style="fill:#c3cce0; stroke:none;" d="M3015 3073L3016 3074L3015 3073z"/>
<path style="fill:#94a8d1; stroke:none;" d="M3013 3074L3014 3075L3013 3074M1154 3075L1155 3076L1154 3075z"/>
<path style="fill:#a3b4d9; stroke:none;" d="M3012 3075L3013 3076L3012 3075z"/>
<path style="fill:#c3cce0; stroke:none;" d="M1155 3076L1156 3077L1155 3076z"/>
<path style="fill:#94a8d1; stroke:none;" d="M3010 3076L3011 3077L3010 3076z"/>
<path style="fill:#c3cce0; stroke:none;" d="M3011 3076L3012 3077L3011 3076z"/>
<path style="fill:#94a8d1; stroke:none;" d="M1157 3077L1158 3078L1157 3077M3009 3077L3010 3078L3009 3077z"/>
<path style="fill:#a3b4d9; stroke:none;" d="M1158 3078L1159 3079L1158 3078z"/>
<path style="fill:#c3cce0; stroke:none;" d="M3008 3078L3009 3079L3008 3078z"/>
<path style="fill:#94a8d1; stroke:none;" d="M1160 3079L1161 3080L1160 3079M3006 3079L3007 3080L3006 3079z"/>
<path style="fill:#a3b4d9; stroke:none;" d="M1161 3080L1162 3081L1161 3080z"/>
<path style="fill:#c3cce0; stroke:none;" d="M3005 3080L3006 3081L3005 3080z"/>
<path style="fill:#94a8d1; stroke:none;" d="M1163 3081L1164 3082L1163 3081M3003 3081L3004 3082L3003 3081z"/>
<path style="fill:#c3cce0; stroke:none;" d="M1164 3082L1165 3083L1164 3082M3002 3082L3003 3083L3002 3082z"/>
<path style="fill:#94a8d1; stroke:none;" d="M1166 3083L1167 3084L1166 3083z"/>
<path style="fill:#a3b4d9; stroke:none;" d="M3000 3083L3001 3084L3000 3083z"/>
<path style="fill:#c3cce0; stroke:none;" d="M1167 3084L1168 3085L1167 3084z"/>
<path style="fill:#94a8d1; stroke:none;" d="M2998 3084L2999 3085L2998 3084z"/>
<path style="fill:#c3cce0; stroke:none;" d="M2999 3084L3000 3085L2999 3084z"/>
<path style="fill:#a3b4d9; stroke:none;" d="M1169 3085L1170 3086L1169 3085z"/>
<path style="fill:#c3cce0; stroke:none;" d="M2997 3085L2998 3086L2997 3085z"/>
<path style="fill:#94a8d1; stroke:none;" d="M1171 3086L1172 3087L1171 3086M2995 3086L2996 3087L2995 3086z"/>
<path style="fill:#c3cce0; stroke:none;" d="M1172 3087L1173 3088L1172 3087z"/>
<path style="fill:#94a8d1; stroke:none;" d="M2993 3087L2994 3088L2993 3087z"/>
<path style="fill:#c3cce0; stroke:none;" d="M2994 3087L2995 3088L2994 3087z"/>
<path style="fill:#a3b4d9; stroke:none;" d="M1174 3088L1175 3089L1174 3088z"/>
<path style="fill:#c3cce0; stroke:none;" d="M2992 3088L2993 3089L2992 3088z"/>
<path style="fill:#94a8d1; stroke:none;" d="M1176 3089L1177 3090L1176 3089M2990 3089L2991 3090L2990 3089z"/>
<path style="fill:#c3cce0; stroke:none;" d="M1177 3090L1178 3091L1177 3090z"/>
<path style="fill:#94a8d1; stroke:none;" d="M2988 3090L2989 3091L2988 3090z"/>
<path style="fill:#c3cce0; stroke:none;" d="M2989 3090L2990 3091L2989 3090M1179 3091L1180 3092L1179 3091z"/>
<path style="fill:#94a8d1; stroke:none;" d="M2986 3091L2987 3092L2986 3091z"/>
<path style="fill:#c3cce0; stroke:none;" d="M2987 3091L2988 3092L2987 3091z"/>
<path style="fill:#a3b4d9; stroke:none;" d="M1181 3092L1182 3093L1181 3092z"/>
<path style="fill:#c3cce0; stroke:none;" d="M2985 3092L2986 3093L2985 3092z"/>
<path style="fill:#94a8d1; stroke:none;" d="M1183 3093L1184 3094L1183 3093z"/>
<path style="fill:#a3b4d9; stroke:none;" d="M2983 3093L2984 3094L2983 3093z"/>
<path style="fill:#94a8d1; stroke:none;" d="M1185 3094L1186 3095L1185 3094M2981 3094L2982 3095L2981 3094M1187 3095L1188 3096L1187 3095M2979 3095L2980 3096L2979 3095M1189 3096L1190 3097L1189 3096M2977 3096L2978 3097L2977 3096M1191 3097L1192 3098L1191 3097M2975 3097L2976 3098L2975 3097M1193 3098L1194 3099L1193 3098M2973 3098L2974 3099L2973 3098M1195 3099L1196 3100L1195 3099M2971 3099L2972 3100L2971 3099z"/>
<path style="fill:#a3b4d9; stroke:none;" d="M1197 3100L1198 3101L1197 3100M2969 3100L2970 3101L2969 3100M1199 3101L1200 3102L1199 3101z"/>
<path style="fill:#94a8d1; stroke:none;" d="M2966 3101L2967 3102L2966 3101z"/>
<path style="fill:#c3cce0; stroke:none;" d="M2967 3101L2968 3102L2967 3101M1201 3102L1202 3103L1201 3102z"/>
<path style="fill:#94a8d1; stroke:none;" d="M1202 3102L1203 3103L1202 3102M2964 3102L2965 3103L2964 3102z"/>
<path style="fill:#c3cce0; stroke:none;" d="M2965 3102L2966 3103L2965 3102M1203 3103L1204 3104L1203 3103z"/>
<path style="fill:#94a8d1; stroke:none;" d="M1204 3103L1205 3104L1204 3103M2962 3103L2963 3104L2962 3103z"/>
<path style="fill:#c3cce0; stroke:none;" d="M2963 3103L2964 3104L2963 3103z"/>
<path style="fill:#a3b4d9; stroke:none;" d="M1206 3104L1207 3105L1206 3104z"/>
<path style="fill:#94a8d1; stroke:none;" d="M2959 3104L2960 3105L2959 3104z"/>
<path style="fill:#a3b4d9; stroke:none;" d="M2960 3104L2961 3105L2960 3104z"/>
<path style="fill:#c3cce0; stroke:none;" d="M1208 3105L1209 3106L1208 3105z"/>
<path style="fill:#94a8d1; stroke:none;" d="M1209 3105L1210 3106L1209 3105M2957 3105L2958 3106L2957 3105z"/>
<path style="fill:#c3cce0; stroke:none;" d="M2958 3105L2959 3106L2958 3105z"/>
<path style="fill:#94a8d1; stroke:none;" d="M1211 3106L1212 3107L1211 3106z"/>
<path style="fill:#a3b4d9; stroke:none;" d="M2955 3106L2956 3107L2955 3106z"/>
<path style="fill:#c3cce0; stroke:none;" d="M1213 3107L1214 3108L1213 3107z"/>
<path style="fill:#94a8d1; stroke:none;" d="M1214 3107L1215 3108L1214 3107M2952 3107L2953 3108L2952 3107z"/>
<path style="fill:#c3cce0; stroke:none;" d="M2953 3107L2954 3108L2953 3107z"/>
<path style="fill:#a3b4d9; stroke:none;" d="M1216 3108L1217 3109L1216 3108z"/>
<path style="fill:#94a8d1; stroke:none;" d="M2949 3108L2950 3109L2949 3108z"/>
<path style="fill:#c3cce0; stroke:none;" d="M2950 3108L2951 3109L2950 3108z"/>
<path style="fill:#94a8d1; stroke:none;" d="M1219 3109L1220 3110L1219 3109z"/>
<path style="fill:#a3b4d9; stroke:none;" d="M2947 3109L2948 3110L2947 3109z"/>
<path style="fill:#94a8d1; stroke:none;" d="M1222 3110L1223 3111L1222 3110z"/>
<path style="fill:#a3b4d9; stroke:none;" d="M2944 3110L2945 3111L2944 3110z"/>
<path style="fill:#c3cce0; stroke:none;" d="M2945 3110L2946 3111L2945 3110M1224 3111L1225 3112L1224 3111z"/>
<path style="fill:#94a8d1; stroke:none;" d="M1225 3111L1226 3112L1225 3111z"/>
<path style="fill:#a3b4d9; stroke:none;" d="M2941 3111L2942 3112L2941 3111z"/>
<path style="fill:#c3cce0; stroke:none;" d="M2942 3111L2943 3112L2942 3111M1227 3112L1228 3113L1227 3112z"/>
<path style="fill:#94a8d1; stroke:none;" d="M1228 3112L1229 3113L1228 3112z"/>
<path style="fill:#a3b4d9; stroke:none;" d="M2938 3112L2939 3113L2938 3112z"/>
<path style="fill:#c3cce0; stroke:none;" d="M2939 3112L2940 3113L2939 3112M1230 3113L1231 3114L1230 3113z"/>
<path style="fill:#a3b4d9; stroke:none;" d="M1231 3113L1232 3114L1231 3113z"/>
<path style="fill:#94a8d1; stroke:none;" d="M2934 3113L2935 3114L2934 3113z"/>
<path style="fill:#a3b4d9; stroke:none;" d="M2935 3113L2936 3114L2935 3113z"/>
<path style="fill:#c3cce0; stroke:none;" d="M2936 3113L2937 3114L2936 3113M1234 3114L1235 3115L1234 3114z"/>
<path style="fill:#94a8d1; stroke:none;" d="M1235 3114L1236 3115L1235 3114M2931 3114L2932 3115L2931 3114z"/>
<path style="fill:#c3cce0; stroke:none;" d="M2932 3114L2933 3115L2932 3114M1237 3115L1238 3116L1237 3115z"/>
<path style="fill:#94a8d1; stroke:none;" d="M1238 3115L1239 3116L1238 3115M2927 3115L2928 3116L2927 3115z"/>
<path style="fill:#a3b4d9; stroke:none;" d="M2928 3115L2929 3116L2928 3115z"/>
<path style="fill:#c3cce0; stroke:none;" d="M2929 3115L2930 3116L2929 3115M1241 3116L1242 3117L1241 3116z"/>
<path style="fill:#94a8d1; stroke:none;" d="M1242 3116L1243 3117L1242 3116M2923.67 3116.33L2924.33 3116.67L2923.67 3116.33z"/>
<path style="fill:#c3cce0; stroke:none;" d="M2925 3116L2926 3117L2925 3116M1245 3117L1246 3118L1245 3117z"/>
<path style="fill:#94a8d1; stroke:none;" d="M1246 3117L1247 3118L1246 3117M2919.67 3117.33L2920.33 3117.67L2919.67 3117.33z"/>
<path style="fill:#c3cce0; stroke:none;" d="M2921 3117L2922 3118L2921 3117M1249 3118L1250 3119L1249 3118z"/>
<path style="fill:#a3b4d9; stroke:none;" d="M1250 3118L1251 3119L1250 3118z"/>
<path style="fill:#94a8d1; stroke:none;" d="M1251 3118L1252 3119L1251 3118M2915.67 3118.33L2916.33 3118.67L2915.67 3118.33z"/>
<path style="fill:#c3cce0; stroke:none;" d="M2917 3118L2918 3119L2917 3118z"/>
<path style="fill:#a3b4d9; stroke:none;" d="M1254 3119L1255 3120L1254 3119z"/>
<path style="fill:#94a8d1; stroke:none;" d="M1255 3119L1256 3120L1255 3119M2910.67 3119.33L2911.33 3119.67L2910.67 3119.33z"/>
<path style="fill:#c3cce0; stroke:none;" d="M2912.67 3119.33L2913.33 3119.67L2912.67 3119.33M1258 3120L1259 3121L1258 3120z"/>
<path style="fill:#a3b4d9; stroke:none;" d="M1259 3120L1260 3121L1259 3120z"/>
<path style="fill:#94a8d1; stroke:none;" d="M1260.67 3120.33L1261.33 3120.67L1260.67 3120.33M2905.67 3120.33L2906.33 3120.67L2905.67 3120.33z"/>
<path style="fill:#c3cce0; stroke:none;" d="M2907.67 3120.33L2908.33 3120.67L2907.67 3120.33M1264 3121L1265 3122L1264 3121z"/>
<path style="fill:#a3b4d9; stroke:none;" d="M1265 3121L1266 3122L1265 3121z"/>
<path style="fill:#94a8d1; stroke:none;" d="M1266.67 3121.33L1267.33 3121.67L1266.67 3121.33M2899.67 3121.33L2900.33 3121.67L2899.67 3121.33z"/>
<path style="fill:#a3b4d9; stroke:none;" d="M2901 3121L2902 3122L2901 3121z"/>
<path style="fill:#c3cce0; stroke:none;" d="M2902 3121L2903 3122L2902 3121M1270 3122L1271 3123L1270 3122z"/>
<path style="fill:#a3b4d9; stroke:none;" d="M1271.67 3122.33L1272.33 3122.67L1271.67 3122.33z"/>
<path style="fill:#94a8d1; stroke:none;" d="M1273.67 3122.33L1274.33 3122.67L1273.67 3122.33M2892 3122L2892 3123L2895 3123L2892 3122z"/>
<path style="fill:#a3b4d9; stroke:none;" d="M2895 3122L2896 3123L2895 3122z"/>
<path style="fill:#c3cce0; stroke:none;" d="M2896 3122L2897 3123L2896 3122M1277.67 3123.33L1278.33 3123.67L1277.67 3123.33z"/>
<path style="fill:#a3b4d9; stroke:none;" d="M1279.67 3123.33L1280.33 3123.67L1279.67 3123.33z"/>
<path style="fill:#94a8d1; stroke:none;" d="M1281.67 3123.33L1282.33 3123.67L1281.67 3123.33M2883 3123L2883 3124L2887 3124L2883 3123z"/>
<path style="fill:#a3b4d9; stroke:none;" d="M2887 3123L2888 3124L2887 3123z"/>
<path style="fill:#c3cce0; stroke:none;" d="M2888.67 3123.33L2889.33 3123.67L2888.67 3123.33M1287 3124L1287 3125L1290 3125L1287 3124z"/>
<path style="fill:#a3b4d9; stroke:none;" d="M1290 3124L1290 3125L1293 3125L1290 3124z"/>
<path style="fill:#94a8d1; stroke:none;" d="M1293 3124L1293 3125L1298 3125L1293 3124M2869 3124L2869 3125L2877 3125L2869 3124z"/>
<path style="fill:#c3cce0; stroke:none;" d="M2877 3124L2877 3125L2880 3125L2877 3124M1309 3125L1309 3126L2858 3126C2847.5 3121.59 2829.42 3125 2818 3125L2727 3125L2409 3125L1309 3125z"/>
</svg>
