<?xml version="1.0" standalone="yes"?>
<svg xmlns="http://www.w3.org/2000/svg" width="1920" height="1920">
<path style="fill:#4387f5; stroke:none;" d="M0 0L1 1L0 0z"/>
<path style="fill:#ffffff; stroke:none;" d="M1920 1920L1920 0L540 0L154 0L46 0L15 0C11.3449 0 5.68217 -1.04517 2.32099 0.602539C-2.52635 2.97888 0 20.3438 0 25L0 101L0 418L0 1552L0 1829L0 1896C0 1900.65 -2.4034 1915.9 1.6142 1918.99C7.70582 1923.67 28.3572 1920 36 1920L131 1920L499 1920L1920 1920z"/>
<path style="fill:#fbbd05; stroke:none;" d="M0 5L1 6L0 5M944 270L944 271L961 271L944 270z"/>
<path style="fill:#eb4335; stroke:none;" d="M588 828C604.316 777.857 630.026 730.792 663.463 690C768.218 562.203 945.692 511.271 1102 565.344C1152.84 582.931 1197.61 610.711 1238 646L1239 646L1432 456C1421.06 440.475 1403.5 428.002 1389 415.92C1348.88 382.496 1304.15 354.946 1257 332.702C1021.6 221.661 737.767 263.838 538 427.576C483.445 472.291 436.753 525.366 397.667 584C388.138 598.294 379.517 613.091 371.001 628C367.777 633.643 361.659 641.466 360.785 647.961C360.055 653.394 369.38 658.314 373 661.199C386.224 671.736 399.669 682.021 413 692.424C454.429 724.754 495.111 758.141 537 789.87C552.165 801.357 569.927 822.006 588 828z"/>
<path style="fill:#fbbd05; stroke:none;" d="M974 270L974 271L993 271L974 270M927 271L927 272L934 272L927 271M1006 271L1006 272L1013 272L1006 271M913 272L913 273L917 273L913 272M1022 272L1022 273L1027 273L1022 272M903 273L903 274L907 274L903 273M1035 273L1035 274L1039 274L1035 273M893 274L893 275L896 275L893 274M1044 274L1044 275L1048 275L1044 274M884 275L884 276L888 276L884 275M1053 275L1053 276L1058 276L1053 275M876 276L876 277L880 277L876 276M1061 276L1061 277L1066 277L1061 276M870.667 277.333L871.333 277.667L870.667 277.333M1070 277L1070 278L1073 278L1070 277M864.667 278.333L865.333 278.667L864.667 278.333M1077.67 278.333L1078.33 278.667L1077.67 278.333M858.667 279.333L859.333 279.667L858.667 279.333M1083.67 279.333L1084.33 279.667L1083.67 279.333M852.667 280.333L853.333 280.667L852.667 280.333M1089.67 280.333L1090.33 280.667L1089.67 280.333M847.667 281.333L848.333 281.667L847.667 281.333M1094.67 281.333L1095.33 281.667L1094.67 281.333M842.667 282.333L843.333 282.667L842.667 282.333M1100.67 282.333L1101.33 282.667L1100.67 282.333M837.667 283.333L838.333 283.667L837.667 283.333M1105.67 283.333L1106.33 283.667L1105.67 283.333M832.667 284.333L833.333 284.667L832.667 284.333M1110.67 284.333L1111.33 284.667L1110.67 284.333M827.667 285.333L828.333 285.667L827.667 285.333M1115.67 285.333L1116.33 285.667L1115.67 285.333M822.667 286.333L823.333 286.667L822.667 286.333M1120.67 286.333L1121.33 286.667L1120.67 286.333M818.667 287.333L819.333 287.667L818.667 287.333M1124.67 287.333L1125.33 287.667L1124.67 287.333M814.667 288.333L815.333 288.667L814.667 288.333M1129 288L1130 289L1129 288M810.667 289.333L811.333 289.667L810.667 289.333M1133.67 289.333L1134.33 289.667L1133.67 289.333M806.667 290.333L807.333 290.667L806.667 290.333M1137.67 290.333L1138.33 290.667L1137.67 290.333M802.667 291.333L803.333 291.667L802.667 291.333M1141.67 291.333L1142.33 291.667L1141.67 291.333M798.667 292.333L799.333 292.667L798.667 292.333M1145.67 292.333L1146.33 292.667L1145.67 292.333M794.667 293.333L795.333 293.667L794.667 293.333M1149.67 293.333L1150.33 293.667L1149.67 293.333M791 294L792 295L791 294M1153 294L1154 295L1153 294M788 295L789 296L788 295M1156.67 295.333L1157.33 295.667L1156.67 295.333M784.667 296.333L785.333 296.667L784.667 296.333M1160 296L1161 297L1160 296M781 297L782 298L781 297M1163.67 297.333L1164.33 297.667L1163.67 297.333M777.667 298.333L778.333 298.667L777.667 298.333M1166.67 298.333L1167.33 298.667L1166.67 298.333M774.667 299.333L775.333 299.667L774.667 299.333M1170 299L1171 300L1170 299M771 300L772 301L771 300M1173.67 300.333L1174.33 300.667L1173.67 300.333M768 301L769 302L768 301M1177 301L1178 302L1177 301M764.667 302.333L765.333 302.667L764.667 302.333M1180 302L1181 303L1180 302M761.667 303.333L762.333 303.667L761.667 303.333M1183 303L1184 304L1183 303M758.667 304.333L759.333 304.667L758.667 304.333M1186 304L1187 305L1186 304M755.667 305.333L756.333 305.667L755.667 305.333M1189 305L1190 306L1189 305M753 306L754 307L753 306M1192 306L1193 307L1192 306M750 307L751 308L750 307M1195 307L1196 308L1195 307M747 308L748 309L747 308M1198 308L1199 309L1198 308M744.667 309.333L745.333 309.667L744.667 309.333M1200.67 309.333L1201.33 309.667L1200.67 309.333M741.667 310.333L742.333 310.667L741.667 310.333M1203 310L1204 311L1203 310M739 311L740 312L739 311M1206 311L1207 312L1206 311M736 312L737 313L736 312M1208.67 312.333L1209.33 312.667L1208.67 312.333M733 313L734 314L733 313M1211 313L1212 314L1211 313M731 314L732 315L731 314M1214 314L1215 315L1214 314M728 315L729 316L728 315M1216.67 315.333L1217.33 315.667L1216.67 315.333M725.667 316.333L726.333 316.667L725.667 316.333M1219 316L1220 317L1219 316M723 317L724 318L723 317M1222 317L1223 318L1222 317M720.667 318.333L721.333 318.667L720.667 318.333M1224 318L1225 319L1224 318M718 319L719 320L718 319M1227 319L1228 320L1227 319M716 320L717 321L716 320M1229 320L1230 321L1229 320M713 321L714 322L713 321M1231 321L1232 322L1231 321M711 322L712 323L711 322M1234 322L1235 323L1234 322M708.667 323.333L709.333 323.667L708.667 323.333M1236 323L1237 324L1236 323M706 324L707 325L706 324M1238.67 324.333L1239.33 324.667L1238.67 324.333M704 325L705 326L704 325M1241 325L1242 326L1241 325M701.667 326.333L702.333 326.667L701.667 326.333M1243 326L1244 327L1243 326M699 327L700 328L699 327M1245 327L1246 328L1245 327M697 328L698 329L697 328M695 329L696 330L695 329M1250 329L1251 330L1250 329M692.667 330.333L693.333 330.667L692.667 330.333M1252 330L1253 331L1252 330M690 331L691 332L690 331M1254 331L1255 332L1254 331M688 332L689 333L688 332M1256 332L1257 333L1256 332M686 333L687 334L686 333M1258.67 333.333L1259.33 333.667L1258.67 333.333M684 334L685 335L684 334M1261 334L1262 335L1261 334M682 335L683 336L682 335M1262.67 335.333L1263.33 335.667L1262.67 335.333M680 336L681 337L680 336M1265 336L1266 337L1265 336M678 337L679 338L678 337M1267 337L1268 338L1267 337M676 338L677 339L676 338M1269 338L1270 339L1269 338M674 339L675 340L674 339M1271 339L1272 340L1271 339M671.667 340.333L672.333 340.667L671.667 340.333M1273 340L1274 341L1273 340M669 341L670 342L669 341M1275 341L1276 342L1275 341M667 342L668 343L667 342M1277 342L1278 343L1277 342M666 343L667 344L666 343M1279 343L1280 344L1279 343M1281 344L1282 345L1281 344M662 345L663 346L662 345M660 346L661 347L660 346M658 347L659 348L658 347M1286 347L1287 348L1286 347M656 348L657 349L656 348M1288 348L1289 349L1288 348M654 349L655 350L654 349M1290 349L1291 350L1290 349M652 350L653 351L652 350M1292 350L1293 351L1292 350M650 351L651 352L650 351M1294 351L1295 352L1294 351M648 352L649 353L648 352M647 353L648 354L647 353M1297 353L1298 354L1297 353M645 354L646 355L645 354M1299 354L1300 355L1299 354M643 355L644 356L643 355M1301 355L1302 356L1301 355M641 356L642 357L641 356M1302 356L1303 357L1302 356M1304 357L1305 358L1304 357M638 358L639 359L638 358M1306 358L1307 359L1306 358M636 359L637 360L636 359M1308 359L1309 360L1308 359M634 360L635 361L634 360M1309 360L1310 361L1309 360M1311 361L1312 362L1311 361M631 362L632 363L631 362M1313 362L1314 363L1313 362M629 363L630 364L629 363M627 364L628 365L627 364M1316 364L1317 365L1316 364M626 365L627 366L626 365M1318 365L1319 366L1318 365M624 366L625 367L624 366M1319 366L1320 367L1319 366M622 367L623 368L622 367M1321 367L1322 368L1321 367M621 368L622 369L621 368M619 369L620 370L619 369M1324 369L1325 370L1324 369M617 370L618 371L617 370M1326 370L1327 371L1326 370M616 371L617 372L616 371M1327 371L1328 372L1327 371M614 372L615 373L614 372M1329 372L1330 373L1329 372M612 373L613 374L612 373M1330 373L1331 374L1330 373M611 374L612 375L611 374M1332 374L1333 375L1332 374M609 375L610 376L609 375M1333 375L1334 376L1333 375M608 376L609 377L608 376M1335 376L1336 377L1335 376M606 377L607 378L606 377M605 378L606 379L605 378M1338 378L1339 379L1338 378M603 379L604 380L603 379M602 380L603 381L602 380M1341 380L1342 381L1341 380M600 381L601 382L600 381M598 382L599 383L598 382M1344 382L1345 383L1344 382M597 383L598 384L597 383M1345 383L1346 384L1345 383M1347 384L1348 385L1347 384M594 385L595 386L594 385M1348 385L1349 386L1348 385M1350 386L1351 387L1350 386M591 387L592 388L591 387M1351 387L1352 388L1351 387M589 388L590 389L589 388M588 389L589 390L588 389M1354 389L1355 390L1354 389M1355 390L1356 391L1355 390M585 391L586 392L585 391M1357 391L1358 392L1357 391M584 392L585 393L584 392M1358 392L1359 393L1358 392M582 393L583 394L582 393M581 394L582 395L581 394M1361 394L1362 395L1361 394M1362 395L1363 396L1362 395M578 396L579 397L578 396M577 397L578 398L577 397M1365 397L1366 398L1365 397M575 398L576 399L575 398M1366 398L1367 399L1366 398M574 399L575 400L574 399M572 400L573 401L572 400M1369 400L1370 401L1369 400M571 401L572 402L571 401M1370 401L1371 402L1370 401M568 403L569 404L568 403M1373 403L1374 404L1373 403M567 404L568 405L567 404M1374 404L1375 405L1374 404M566 405L567 406L566 405M1377 406L1378 407L1377 406M563 407L564 408L563 407M1378 407L1379 408L1378 407M1379 408L1380 409L1379 408M560 409L561 410L560 409M559 410L560 411L559 410M1382 410L1383 411L1382 410M558 411L559 412L558 411M1383 411L1384 412L1383 411M1384 412L1385 413L1384 412M555 413L556 414L555 413M554 414L555 415L554 414M1387 414L1388 415L1387 414M1388 415L1389 416L1388 415M551 416L552 417L551 416M1389 416L1390 417L1389 416M550 417L551 418L550 417M1390 417L1391 418L1390 417M549 418L550 419L549 418M1393 419L1394 420L1393 419M546 420L547 421L546 420M1394 420L1395 421L1394 420M545 421L546 422L545 421M1395 421L1396 422L1395 421M544 422L545 423L544 422M1396 422L1397 423L1396 422M541 424L542 425L541 424M540 425L541 426L540 425M1400 425L1401 426L1400 425M539 426L540 427L539 426M1401 426L1402 427L1401 426M538 427L539 428L538 427M1402 427L1403 428L1402 427M536 428L537 429L536 428M1403 428L1404 429L1403 428M535 429L536 430L535 429M1404 429L1405 430L1404 429M534 430L535 431L534 430M533 431L534 432L533 431M1408 432L1409 433L1408 432M1409 433L1410 434L1409 433M529 434L530 435L529 434M1410 434L1411 435L1410 434M528 435L529 436L528 435M1411 435L1412 436L1411 435M527 436L528 437L527 436M1412 436L1413 437L1412 436M526 437L527 438L526 437M1413 437L1414 438L1413 437M521 441L522 442L521 441M520 442L521 443L520 442M519 443L520 444L519 443M1420 443L1421 444L1420 443M518 444L519 445L518 444M1421 444L1422 445L1421 444M1422 445L1423 446L1422 445M1423 446L1424 447L1423 446M514 447L515 448L514 447M1424 447L1425 448L1424 447M513 448L514 449L513 448M1425 448L1426 449L1425 448M512 449L513 450L512 449M1426 449L1427 450L1426 449M511 450L512 451L511 450M1427 450L1428 451L1427 450M510 451L511 452L510 451M1428 451L1429 452L1428 451M509 452L510 453L509 452M1429 452L1430 453L1429 452M508 453L509 454L508 453M1430 453L1431 454L1430 453M507 454L508 455L507 454M1431 454L1432 455L1431 454M506 455L507 456L506 455M1431 456L1432 457L1431 456M1430 457L1431 458L1430 457M1429 458L1430 459L1429 458M1427 460L1428 461L1427 460M499 461L500 462L499 461M498 462L499 463L498 462M497 463L498 464L497 463M496 464L497 465L496 464M495 465L496 466L495 465M1422 465L1423 466L1422 465M494 466L495 467L494 466M493 467L494 468L493 467M1420 467L1421 468L1420 467M492 468L493 469L492 468M1419 468L1420 469L1419 468M491 469L492 470L491 469M490 470L491 471L490 470M489 471L490 472L489 471M488 472L489 473L488 472M487 473L488 474L487 473M486 474L487 475L486 474M485 475L486 476L485 475M484 476L485 477L484 476M483 477L484 478L483 477M482 478L483 479L482 478M481 479L482 480L481 479M480 480L481 481L480 480M479 481L480 482L479 481M478 482L479 483L478 482M1397 489L1398 490L1397 489M471 490L472 491L471 490M1396 490L1397 491L1396 490M470 491L471 492L470 491M1395 491L1396 492L1395 491M469 492L470 493L469 492M1394 492L1395 493L1394 492M468 493L469 494L468 493M1393 493L1394 494L1393 493M467 494L468 495L467 494M1392 494L1393 495L1392 494M466 495L467 496L466 495M465 496L466 497L465 496M464 497L465 498L464 497M1389 497L1390 498L1389 497M1388 498L1389 499L1388 498M1387 499L1388 500L1387 499M1386 500L1387 501L1386 500M1385 501L1386 502L1385 501M460 502L461 503L460 502M459 503L460 504L459 503M458 504L459 505L458 504M1382 504L1383 505L1382 504M457 505L458 506L457 505M1381 505L1382 506L1381 505M456 506L457 507L456 506M1380 506L1381 507L1380 506M1379 507L1380 508L1379 507M1378 508L1379 509L1378 508M1377 509L1378 510L1377 509M453 510L454 511L453 510M1376 510L1377 511L1376 510M452 511L453 512L452 511M1375 511L1376 512L1375 511M451 512L452 513L451 512M1374 512L1375 513L1374 512M450 513L451 514L450 513M1373 513L1374 514L1373 513M449 514L450 515L449 514M1372 514L1373 515L1372 514M1371 515L1372 516L1371 515M1370 516L1371 517L1370 516M447 517L448 518L447 517M1369 517L1370 518L1369 517M446 518L447 519L446 518M1368 518L1369 519L1368 518M445 519L446 520L445 519M1367 519L1368 520L1367 519M444 520L445 521L444 520M1366 520L1367 521L1366 520M1365 521L1366 522L1365 521M1364 522L1365 523L1364 522M442 523L443 524L442 523M1363 523L1364 524L1363 523M441 524L442 525L441 524M1362 524L1363 525L1362 524M440 525L441 526L440 525M1361 525L1362 526L1361 525M439 526L440 527L439 526M1360 526L1361 527L1360 526M1359 527L1360 528L1359 527M1358 528L1359 529L1358 528M437 529L438 530L437 529M1357 529L1358 530L1357 529M436 530L437 531L436 530M1356 530L1357 531L1356 530M435 531L436 532L435 531M1355 531L1356 532L1355 531M1354 532L1355 533L1354 532M1353 533L1354 534L1353 533M433 534L434 535L433 534M1352 534L1353 535L1352 534M432 535L433 536L432 535M430 538L431 539L430 538M429 539L430 540L429 539M428 540L429 541L428 540M426 543L427 544L426 543M425 544L426 545L425 544M948 544L948 545L956 545L948 544M981 544L981 545L991 545L981 544M933 545L933 546L939 546L933 545M999 545L999 546L1005 546L999 545M924 546L924 547L928 547L924 546M1011 546L1011 547L1016 547L1011 546M423 547L424 548L423 547M915 547L915 548L919 548L915 547M1020 547L1020 548L1025 548L1020 547M422 548L423 549L422 548M908 548L908 549L912 549L908 548M1029 548L1029 549L1032 549L1029 548M421 549L422 550L421 549M902.667 549.333L903.333 549.667L902.667 549.333M1035 549L1035 550L1038 550L1035 549M897.667 550.333L898.333 550.667L897.667 550.333M1042.67 550.333L1043.33 550.667L1042.67 550.333M420 551L421 552L420 551M892.667 551.333L893.333 551.667L892.667 551.333M1048.67 551.333L1049.33 551.667L1048.67 551.333M419 552L420 553L419 552M887.667 552.333L888.333 552.667L887.667 552.333M1052.67 552.333L1053.33 552.667L1052.67 552.333M883 553L884 554L883 553M1057.67 553.333L1058.33 553.667L1057.67 553.333M878.667 554.333L879.333 554.667L878.667 554.333M1062.67 554.333L1063.33 554.667L1062.67 554.333M417 555L418 556L417 555M874.667 555.333L875.333 555.667L874.667 555.333M1066.67 555.333L1067.33 555.667L1066.67 555.333M416 556L417 557L416 556M870.667 556.333L871.333 556.667L870.667 556.333M1070.67 556.333L1071.33 556.667L1070.67 556.333M866.667 557.333L867.333 557.667L866.667 557.333M1074.67 557.333L1075.33 557.667L1074.67 557.333M1328 557L1329 558L1328 557M415 558L416 559L415 558M863 558L864 559L863 558M1078.67 558.333L1079.33 558.667L1078.67 558.333M414 559L415 560L414 559M859.667 559.333L860.333 559.667L859.667 559.333M1082.67 559.333L1083.33 559.667L1082.67 559.333M856 560L857 561L856 560M1085.67 560.333L1086.33 560.667L1085.67 560.333M853 561L854 562L853 561M1088.67 561.333L1089.33 561.667L1088.67 561.333M412 562L413 563L412 562M850 562L851 563L850 562M1092 562L1093 563L1092 562M411 563L412 564L411 563M846.667 563.333L847.333 563.667L846.667 563.333M1095.67 563.333L1096.33 563.667L1095.67 563.333M843.667 564.333L844.333 564.667L843.667 564.333M1098.67 564.333L1099.33 564.667L1098.67 564.333M410 565L411 566L410 565M840.667 565.333L841.333 565.667L840.667 565.333M1101.67 565.333L1102.33 565.667L1101.67 565.333M1320 565L1321 566L1320 565M409 566L410 567L409 566M838 566L839 567L838 566M1104.67 566.333L1105.33 566.667L1104.67 566.333M1319 566L1320 567L1319 566M835 567L836 568L835 567M1107 567L1108 568L1107 567M1318 567L1319 568L1318 567M832.667 568.333L833.333 568.667L832.667 568.333M1110 568L1111 569L1110 568M1317 568L1318 569L1317 568M407 569L408 570L407 569M830 569L831 570L830 569M1112.67 569.333L1113.33 569.667L1112.67 569.333M1316 569L1317 570L1316 569M406 570L407 571L406 570M827 570L828 571L827 570M1115 570L1116 571L1115 570M1315 570L1316 571L1315 570M824.667 571.333L825.333 571.667L824.667 571.333M1118 571L1119 572L1118 571M1314 571L1315 572L1314 571M405 572L406 573L405 572M822 572L823 573L822 572M1120.67 572.333L1121.33 572.667L1120.67 572.333M1313 572L1314 573L1313 572M820 573L821 574L820 573M1123 573L1124 574L1123 573M1312 573L1313 574L1312 573M817 574L818 575L817 574M1125 574L1126 575L1125 574M1311 574L1312 575L1311 574M403 575L404 576L403 575M815 575L816 576L815 575M1128 575L1129 576L1128 575M1310 575L1311 576L1310 575M402 576L403 577L402 576M812 576L813 577L812 576M1130 576L1131 577L1130 576M1309 576L1310 577L1309 576M810 577L811 578L810 577M1132.67 577.333L1133.33 577.667L1132.67 577.333M1308 577L1309 578L1308 577M401 578L402 579L401 578M808 578L809 579L808 578M1135 578L1136 579L1135 578M1307 578L1308 579L1307 578M400 579L401 580L400 579M806 579L807 580L806 579M1137 579L1138 580L1137 579M1306 579L1307 580L1306 579M804 580L805 581L804 580M1139 580L1140 581L1139 580M1305 580L1306 581L1305 580M399 581L400 582L399 581M801.667 581.333L802.333 581.667L801.667 581.333M1141 581L1142 582L1141 581M1304 581L1305 582L1304 581M398 582L399 583L398 582M1143 582L1144 583L1143 582M1303 582L1304 583L1303 582M797 583L798 584L797 583M1145 583L1146 584L1145 583M1302 583L1303 584L1302 583M397 584L398 585L397 584M795 584L796 585L795 584M1301 584L1302 585L1301 584M396 585L397 586L396 585M793 585L794 586L793 585M1150 585L1151 586L1150 585M1300 585L1301 586L1300 585M791 586L792 587L791 586M1152 586L1153 587L1152 586M1299 586L1300 587L1299 586M395 587L396 588L395 587M1298 587L1299 588L1298 587M394 588L395 589L394 588M788 588L789 589L788 588M1297 588L1298 589L1297 588M786 589L787 590L786 589M1157 589L1158 590L1157 589M1296 589L1297 590L1296 589M393 590L394 591L393 590M1159 590L1160 591L1159 590M1295 590L1296 591L1295 590M782 591L783 592L782 591M1161 591L1162 592L1161 591M1294 591L1295 592L1294 591M780 592L781 593L780 592M1163 592L1164 593L1163 592M1293 592L1294 593L1293 592M391 593L392 594L391 593M778 593L779 594L778 593M1165 593L1166 594L1165 593M1292 593L1293 594L1292 593M777 594L778 595L777 594M1167 594L1168 595L1167 594M1291 594L1292 595L1291 594M390 595L391 596L390 595M775 595L776 596L775 595M1290 595L1291 596L1290 595M389 596L390 597L389 596M773 596L774 597L773 596M1170 596L1171 597L1170 596M1289 596L1290 597L1289 596M771 597L772 598L771 597M1172 597L1173 598L1172 597M1288 597L1289 598L1288 597M388 598L389 599L388 598M769 598L770 599L769 598M1173 598L1174 599L1173 598M1287 598L1288 599L1287 598M768 599L769 600L768 599M1175 599L1176 600L1175 599M1286 599L1287 600L1286 599M766 600L767 601L766 600M1177 600L1178 601L1177 600M386 601L387 602L386 601M765 601L766 602L765 601M1179 601L1180 602L1179 601M1284 601L1285 602L1284 601M763 602L764 603L763 602M1180 602L1181 603L1180 602M1283 602L1284 603L1283 602M385 603L386 604L385 603M761 603L762 604L761 603M1182 603L1183 604L1182 603M1282 603L1283 604L1282 603M384 604L385 605L384 604M760 604L761 605L760 604M1281 604L1282 605L1281 604M758 605L759 606L758 605M1185 605L1186 606L1185 605M383 606L384 607L383 606M1279 606L1280 607L1279 606M755 607L756 608L755 607M1188 607L1189 608L1188 607M1278 607L1279 608L1278 607M754 608L755 609L754 608M381 609L382 610L381 609M752 609L753 610L752 609M1191 609L1192 610L1191 609M1276 609L1277 610L1276 609M751 610L752 611L751 610M1275 610L1276 611L1275 610M380 611L381 612L380 611M749 611L750 612L749 611M1194 611L1195 612L1194 611M379 613L380 614L379 613M746 613L747 614L746 613M1197 613L1198 614L1197 613M378 614L379 615L378 614M745 614L746 615L745 614M743 615L744 616L743 615M1200 615L1201 616L1200 615M377 616L378 617L377 616M742 616L743 617L742 616M1201 616L1202 617L1201 616M376 618L377 619L376 618M739 618L740 619L739 618M1204 618L1205 619L1204 618M738 619L739 620L738 619M1205 619L1206 620L1205 619M375 620L376 621L375 620M736 620L737 621L736 620M1207 620L1208 621L1207 620M374 621L375 622L374 621M735 621L736 622L735 621M1208 621L1209 622L1208 621M1209 622L1210 623L1209 622M373 623L374 624L373 623M732 623L733 624L732 623M1211 623L1212 624L1211 623M731 624L732 625L731 624M1212 624L1213 625L1212 624M372 625L373 626L372 625M1213 625L1214 626L1213 625M728 626L729 627L728 626M371 627L372 628L371 627M727 627L728 628L727 627M1216 627L1217 628L1216 627M1257 627L1258 628L1257 627M370 628L371 629L370 628M726 628L727 629L726 628M1217 628L1218 629L1217 628M1256 628L1257 629L1256 628M1218 629L1219 630L1218 629M1255 629L1256 630L1255 629M369 630L370 631L369 630M723 630L724 631L723 630M1254 630L1255 631L1254 630M722 631L723 632L722 631M1221 631L1222 632L1221 631M1253 631L1254 632L1253 631M368 632L369 633L368 632M721 632L722 633L721 632M1222 632L1223 633L1222 632M1252 632L1253 633L1252 632M1223 633L1224 634L1223 633M1251 633L1252 634L1251 633M367 634L368 635L367 634M718 634L719 635L718 634M1250 634L1251 635L1250 634M717 635L718 636L717 635M1249 635L1250 636L1249 635M366 636L367 637L366 636M716 636L717 637L716 636M1227 636L1228 637L1227 636M1248 636L1249 637L1248 636M715 637L716 638L715 637M1228 637L1229 638L1228 637M1247 637L1248 638L1247 637M365 638L366 639L365 638M1229 638L1230 639L1229 638M1246 638L1247 639L1246 638M364 639L365 640L364 639M1230 639L1231 640L1230 639M1245 639L1246 640L1245 639M711 640L712 641L711 640M1244 640L1245 641L1244 640M363 641L364 642L363 641M710 641L711 642L710 641M1243 641L1244 642L1243 641M709 642L710 643L709 642M1242 642L1243 643L1242 642M362 643L363 644L362 643M708 643L709 644L708 643M1235 643L1236 644L1235 643M1241 643L1242 644L1241 643M707 644L708 645L707 644M1236 644L1237 645L1236 644M1240 644L1241 645L1240 644M361 645L362 646L361 645M1237 645L1238 646L1237 645M1239 645L1240 646L1239 645M360 647L361 648L360 647M702 648L703 649L702 648M359 649C341.276 691.627 322.161 732.378 309.427 777C278.601 885.026 276.594 1002.66 301.651 1112C314.448 1167.84 337.156 1217.53 359 1270C378.711 1259.94 396.598 1241.35 414 1227.66C453.613 1196.5 493.145 1165.2 533 1134.35C550.892 1120.5 568.342 1103.2 588 1092C577.893 1047.92 567.079 1005.66 567.079 960C567.079 914.338 577.805 872.065 588 828L563 809.424L515 771.651L359 649M701 649L702 650L701 649M700 650L701 651L700 650M699 651L700 652L699 651M698 652L699 653L698 652M697 653L698 654L697 653M696 654L697 655L696 654M695 655L696 656L695 655M694 656L695 657L694 656M693 657L694 658L693 657M692 658L693 659L692 658M691 659L692 660L691 659M690 660L691 661L690 660M689 661L690 662L689 661M688 662L689 663L688 662M687 663L688 664L687 663M686 664L687 665L686 664M685 665L686 666L685 665M684 666L685 667L684 666M683 667L684 668L683 667M682 668L683 669L682 668M681 669L682 670L681 669M680 670L681 671L680 670M678 672L679 673L678 672M673 678L674 679L673 678M672 679L673 680L672 679M671 680L672 681L671 680M670 681L671 682L670 681M667 685L668 686L667 685M666 686L667 687L666 686M665 687L666 688L665 687M664 688L665 689L664 688M663 689L664 690L663 689M661 692L662 693L661 692M660 693L661 694L660 693M658 696L659 697L658 696M657 697L658 698L657 697M656 698L657 699L656 698M654 701L655 702L654 701M653 702L654 703L653 702M651 705L652 706L651 705M650 706L651 707L650 706M648 709L649 710L648 709M647 710L648 711L647 710M645 713L646 714L645 713M644 714L645 715L644 714M643 716L644 717L643 716M642 717L643 718L642 717M641 719L642 720L641 719M640 720L641 721L640 720M639 722L640 723L639 722M638 723L639 724L638 723M637 725L638 726L637 725M636 726L637 727L636 726M635 728L636 729L635 728M634 729L635 730L634 729M633 731L634 732L633 731M631 734L632 735L631 734M630 736L631 737L630 736M629 737L630 738L629 737M628 739L629 740L628 739M626 742L627 743L626 742M625 744L626 745L625 744M624 746L625 747L624 746M622 749L623 750L622 749M621 751L622 752L621 751M620 753L621 754L620 753M618 756L619 757L618 756M617 758L618 759L617 758M616 760L617 761L616 760M615 762L616 763L615 762M614 764L615 765L614 764M613 766L614 767L613 766M612 768L613 769L612 768M611 770L612 771L611 770M610 772L611 773L610 772M609 774L610 775L609 774M608 776L609 777L608 776M607 778L608 779L607 778M606 780L607 781L606 780M604 785L605 786L604 785M603 787L604 788L603 787M602.333 789.667L602.667 790.333L602.333 789.667M601 792L602 793L601 792M600 794L601 795L600 794M599 796L600 797L599 796M598 799L599 800L598 799M597 801L598 802L597 801M596 804L597 805L596 804M595.333 806.667L595.667 807.333L595.333 806.667M594 809L595 810L594 809M593 812L594 813L593 812M592.333 814.667L592.667 815.333L592.333 814.667M591 817L592 818L591 817M590 820L591 821L590 820M589 823L590 824L589 823M588.333 826.667L588.667 827.333L588.333 826.667z"/>
<path style="fill:#4387f5; stroke:none;" d="M977 1102L1350 1102C1347.76 1117.18 1340.89 1132.82 1335.2 1147C1318.26 1189.22 1294.04 1227.61 1263.49 1261.29C1252.96 1272.89 1241.17 1283.37 1229 1293.2C1222.91 1298.11 1213.47 1302.89 1210 1310C1226.96 1320.6 1242.17 1335.1 1258 1347.35C1297.86 1378.2 1337.13 1409.81 1377 1440.65C1390.73 1451.28 1404.34 1462.08 1418 1472.79C1421.67 1475.67 1428.96 1483.81 1434 1483.09C1437.56 1482.59 1440.62 1478.37 1443 1476C1449.92 1469.1 1457.16 1462.38 1463.58 1455C1488.2 1426.64 1510.97 1397.21 1530.4 1365C1600.84 1248.22 1632.99 1107.67 1633 972C1633 942.466 1630.08 913.395 1629.01 884C1628.71 875.726 1629.51 853.982 1624.01 847.603C1619.73 842.633 1598.36 846 1592 846L1499 846L1118 846L1013 846L987 846C984.383 846.001 979.891 845.25 978.028 847.603C975.105 851.294 977 861.487 977 866L977 914L977 1102z"/>
<path style="fill:#35a953; stroke:none;" d="M360 1269C361.351 1276.58 366.137 1283.32 369.769 1290C377.946 1305.04 386.841 1319.76 396.333 1334C433.274 1389.41 476.327 1439.9 527 1483.27C717.413 1646.25 982.529 1690.49 1219 1611.67C1276.21 1592.6 1329.93 1565.5 1379 1530.42C1397.08 1517.49 1421.09 1502.28 1434 1484L1361 1427.21L1209 1308C1169.03 1338.72 1116.89 1356.42 1068 1366.2C943.731 1391.05 813.921 1366 716 1282.57C673.258 1246.16 637.506 1201.27 612.37 1151C602.789 1131.84 596.635 1111.48 588 1092L564 1109.21L520 1143.79L413 1227.66L360 1269z"/>
<path style="fill:#fbbd05; stroke:none;" d="M533 1488L534 1489L533 1488M0 1914L1 1915L0 1914z"/>
<path style="fill:#4387f5; stroke:none;" d="M0 1919L1 1920L0 1919z"/>
</svg>
